<svg id="add-event" xmlns="http://www.w3.org/2000/svg" width="22" height="22" viewBox="0 0 22 22">
  <path id="Path_227" data-name="Path 227" d="M7.792,58.251H2.521A2.523,2.523,0,0,1,0,55.73V45.189a2.523,2.523,0,0,1,2.521-2.521H15.813a2.523,2.523,0,0,1,2.521,2.521v3.667a.687.687,0,0,1-1.375,0V45.189a1.147,1.147,0,0,0-1.146-1.146H2.521a1.147,1.147,0,0,0-1.146,1.146V55.73a1.147,1.147,0,0,0,1.146,1.146H7.792a.688.688,0,1,1,0,1.375Zm0,0" transform="translate(0 -40.834)" fill="#8b93a8"/>
  <path id="Path_228" data-name="Path 228" d="M17.646,129.375H.688a.688.688,0,0,1,0-1.375H17.646a.688.688,0,0,1,0,1.375Zm0,0" transform="translate(0 -122.5)" fill="#8b93a8"/>
  <path id="Path_229" data-name="Path 229" d="M86.02,5.042a.688.688,0,0,1-.687-.687V.688a.688.688,0,0,1,1.375,0V4.354A.688.688,0,0,1,86.02,5.042Zm0,0" transform="translate(-81.665)" fill="#8b93a8"/>
  <path id="Path_230" data-name="Path 230" d="M310.02,5.042a.688.688,0,0,1-.687-.687V.688a.688.688,0,0,1,1.375,0V4.354A.688.688,0,0,1,310.02,5.042Zm0,0" transform="translate(-296.04)" fill="#8b93a8"/>
  <path id="Path_231" data-name="Path 231" d="M240.626,246.585a5.958,5.958,0,1,1,5.958-5.958A5.965,5.965,0,0,1,240.626,246.585Zm0-10.542a4.583,4.583,0,1,0,4.583,4.583A4.588,4.588,0,0,0,240.626,236.043Zm0,0" transform="translate(-224.585 -224.585)" fill="#8b93a8"/>
  <path id="Path_232" data-name="Path 232" d="M358.02,305.085a.688.688,0,0,1-.687-.687v-5.042a.688.688,0,0,1,1.375,0V304.4A.688.688,0,0,1,358.02,305.085Zm0,0" transform="translate(-341.978 -285.835)" fill="#8b93a8"/>
  <path id="Path_233" data-name="Path 233" d="M304.4,358.707h-5.042a.688.688,0,0,1,0-1.375H304.4a.688.688,0,0,1,0,1.375Zm0,0" transform="translate(-285.835 -341.978)" fill="#8b93a8"/>
</svg>
