<svg id="add-product" xmlns="http://www.w3.org/2000/svg" width="22" height="22" viewBox="0 0 22 22">
  <g id="Group_183" data-name="Group 183">
    <g id="Group_182" data-name="Group 182">
      <path id="Path_226" data-name="Path 226" d="M15.984,9.969A6.016,6.016,0,1,0,22,15.984,6.022,6.022,0,0,0,15.984,9.969Zm0,10.313a4.3,4.3,0,1,1,4.3-4.3A4.3,4.3,0,0,1,15.984,20.281ZM13.75,8.579a7.689,7.689,0,0,1,1.719-.312V3.873L7.734,0,0,3.873v9.656L7.734,17.4l.6-.3a7.772,7.772,0,0,1-.041-1.9l-.555.278L1.719,12.467V5.795L6.875,8.373v4.22H8.594V8.373L13.75,5.795Zm-6.016-1.7L2.781,4.4,7.734,1.928,12.688,4.4Zm9.109,6.525H15.125v1.719H13.406v1.719h1.719v1.719h1.719V16.844h1.719V15.125H16.844Z" fill="#8b93a8"/>
    </g>
  </g>
</svg>
