<svg xmlns="http://www.w3.org/2000/svg" width="20.135" height="23.211" viewBox="0 0 20.135 23.211">
  <g id="calendar" transform="translate(-3 -1.25)">
    <g id="Group_274" data-name="Group 274" transform="translate(3 1.25)">
      <path id="Path_493" data-name="Path 493" d="M18.381,3.834V2.089a.839.839,0,0,0-1.678,0V3.767H9.432V2.089a.839.839,0,1,0-1.678,0V3.834A4.751,4.751,0,0,0,3.045,8.588a.562.562,0,0,0,.559.593H22.531a.555.555,0,0,0,.559-.593,4.751,4.751,0,0,0-4.709-4.754Zm3.635,7.025H4.119A1.122,1.122,0,0,0,3,11.977v6.891c0,3.356,1.678,5.593,5.593,5.593h8.949c3.915,0,5.593-2.237,5.593-5.593V11.977A1.122,1.122,0,0,0,22.016,10.859ZM9.946,20.221a1.763,1.763,0,0,1-.168.134.847.847,0,0,1-.2.1.711.711,0,0,1-.2.067,1.516,1.516,0,0,1-.224.022,1.114,1.114,0,0,1-.425-.089,1.155,1.155,0,0,1-.369-.235,1.134,1.134,0,0,1,0-1.588,1.155,1.155,0,0,1,.369-.235,1.069,1.069,0,0,1,.649-.067.711.711,0,0,1,.2.067.847.847,0,0,1,.2.1l.168.134a1.134,1.134,0,0,1,0,1.588Zm0-3.915a1.123,1.123,0,0,1-1.588-1.588,1.117,1.117,0,0,1,1.219-.235,1.044,1.044,0,0,1,.369.235,1.134,1.134,0,0,1,0,1.588Zm3.915,3.915a1.134,1.134,0,1,1,.324-.794A1.176,1.176,0,0,1,13.862,20.221Zm0-3.915-.168.134a.847.847,0,0,1-.2.1.711.711,0,0,1-.2.067,1.516,1.516,0,0,1-.224.022,1.123,1.123,0,0,1-.794-1.913,1.044,1.044,0,0,1,.369-.235,1.117,1.117,0,0,1,1.219.235,1.134,1.134,0,0,1,0,1.588Zm3.915,3.915a1.134,1.134,0,1,1,.324-.794A1.176,1.176,0,0,1,17.777,20.221Zm0-3.915-.168.134a.847.847,0,0,1-.2.1.711.711,0,0,1-.2.067,1.681,1.681,0,0,1-.224.022,1.123,1.123,0,0,1-.794-1.913,1.155,1.155,0,0,1,.369-.235,1.069,1.069,0,0,1,.649-.067.711.711,0,0,1,.2.067.847.847,0,0,1,.2.1l.168.134a1.134,1.134,0,0,1,0,1.588Z" transform="translate(-3 -1.25)" fill="#8b93a8"/>
    </g>
  </g>
</svg>
