<svg xmlns="http://www.w3.org/2000/svg" width="53.76" height="50.232" viewBox="0 0 53.76 50.232">
  <g id="diamond-acc" transform="translate(0 -16.793)">
    <g id="Group_186" data-name="Group 186" transform="translate(5.671 32.033)">
      <g id="Group_185" data-name="Group 185">
        <path id="Path_234" data-name="Path 234" d="M96.038,172.092l-5.849-9.032a2.44,2.44,0,0,0-2.056-1.118h-25.8a2.441,2.441,0,0,0-2.054,1.115l-5.867,9.033a2.455,2.455,0,0,0,.225,2.963l18.759,21.06a2.452,2.452,0,0,0,1.829.82h0a2.452,2.452,0,0,0,1.829-.82l18.761-21.062A2.455,2.455,0,0,0,96.038,172.092Zm-9.089-8.05-4.919,7.606-4.922-7.606ZM80.1,172.531H70.341l4.879-7.541Zm-6.767-8.489-4.908,7.585-4.906-7.585Zm-11.756.865,4.932,7.624H56.625Zm-4.508,9.724H67.636l5.588,18.137Zm18.152,17.487-5.387-17.487H80.608Zm2,.651,5.588-18.137H93.374Zm6.742-20.237,4.927-7.619,4.934,7.619Z" transform="translate(-54.014 -161.942)" fill="#8b93a8"/>
      </g>
    </g>
    <g id="Group_188" data-name="Group 188" transform="translate(0 42.622)">
      <g id="Group_187" data-name="Group 187">
        <path id="Path_235" data-name="Path 235" d="M3.185,262.793H1.05a1.05,1.05,0,1,0,0,2.1H3.185a1.05,1.05,0,1,0,0-2.1Z" transform="translate(0 -262.793)" fill="#8b93a8"/>
      </g>
    </g>
    <g id="Group_190" data-name="Group 190" transform="translate(49.524 42.622)">
      <g id="Group_189" data-name="Group 189">
        <path id="Path_236" data-name="Path 236" d="M474.852,262.793h-2.135a1.05,1.05,0,1,0,0,2.1h2.135a1.05,1.05,0,1,0,0-2.1Z" transform="translate(-471.667 -262.793)" fill="#8b93a8"/>
      </g>
    </g>
    <g id="Group_192" data-name="Group 192" transform="translate(40.619 24.364)">
      <g id="Group_191" data-name="Group 191">
        <path id="Path_237" data-name="Path 237" d="M392.137,89.2a1.05,1.05,0,0,0-1.485,0l-3.488,3.488a1.05,1.05,0,0,0,1.485,1.485l3.488-3.488A1.05,1.05,0,0,0,392.137,89.2Z" transform="translate(-386.857 -88.897)" fill="#8b93a8"/>
      </g>
    </g>
    <g id="Group_194" data-name="Group 194" transform="translate(7.597 24.345)">
      <g id="Group_193" data-name="Group 193">
        <path id="Path_238" data-name="Path 238" d="M77.638,92.514l-3.488-3.488a1.05,1.05,0,0,0-1.485,1.485L76.153,94a1.05,1.05,0,0,0,1.485-1.485Z" transform="translate(-72.358 -88.718)" fill="#8b93a8"/>
      </g>
    </g>
    <g id="Group_196" data-name="Group 196" transform="translate(25.856 16.793)">
      <g id="Group_195" data-name="Group 195" transform="translate(0 0)">
        <path id="Path_239" data-name="Path 239" d="M247.3,16.793a1.05,1.05,0,0,0-1.05,1.05v6.842a1.05,1.05,0,0,0,2.1,0V17.843A1.05,1.05,0,0,0,247.3,16.793Z" transform="translate(-246.254 -16.793)" fill="#8b93a8"/>
      </g>
    </g>
    <g id="Group_198" data-name="Group 198" transform="translate(25.856 27.187)">
      <g id="Group_197" data-name="Group 197">
        <path id="Path_240" data-name="Path 240" d="M248.042,116.1a1.049,1.049,0,1,0,.308.742A1.058,1.058,0,0,0,248.042,116.1Z" transform="translate(-246.25 -115.79)" fill="#8b93a8"/>
      </g>
    </g>
  </g>
</svg>
