<svg xmlns="http://www.w3.org/2000/svg" width="40" height="40" viewBox="0 0 40 40"><g transform="translate(-2298 -7245)"><circle cx="20" cy="20" r="20" transform="translate(2298 7245)" fill="#f3f6f8"/><path d="M9.968,18.94v1.994a1.011,1.011,0,0,1-1,1H1a.958.958,0,0,1-.7-.3.958.958,0,0,1-.3-.7V18.94a.958.958,0,0,1,.3-.7.958.958,0,0,1,.7-.3h1V11.962H1a.958.958,0,0,1-.7-.3.956.956,0,0,1-.3-.7V8.971a.958.958,0,0,1,.3-.7.958.958,0,0,1,.7-.3H6.978a1.011,1.011,0,0,1,1,1v8.972h1a1.011,1.011,0,0,1,1,1ZM7.975,1V3.987a1.011,1.011,0,0,1-1,1H2.99a.958.958,0,0,1-.7-.3.958.958,0,0,1-.3-.7V1a.958.958,0,0,1,.3-.7.958.958,0,0,1,.7-.3H6.977a.958.958,0,0,1,.7.3.958.958,0,0,1,.3.7Z" transform="translate(2313.001 7254.001)" fill="#8b93a8"/></g></svg>