<svg xmlns="http://www.w3.org/2000/svg" width="40" height="40" viewBox="0 0 40 40"><g transform="translate(-2172 -7143)"><circle cx="20" cy="20" r="20" transform="translate(2172 7143)" fill="#f3f6f8"/><path d="M23.562,4.887a1.976,1.976,0,0,1,.251,1.8L19.974,19.34a2.885,2.885,0,0,1-1.068,1.5,2.785,2.785,0,0,1-1.71.608H4.306A3.418,3.418,0,0,1,2.233,20.7,3.922,3.922,0,0,1,.843,18.865a2.534,2.534,0,0,1-.028-1.774q0-.056.042-.377T.914,16.2a.777.777,0,0,0-.042-.3.693.693,0,0,1-.042-.272.864.864,0,0,1,.112-.293A3.46,3.46,0,0,1,1.171,15a3.46,3.46,0,0,0,.23-.328A9.39,9.39,0,0,0,2.03,13.4a7.575,7.575,0,0,0,.419-1.278,1.087,1.087,0,0,0,.007-.419,1.234,1.234,0,0,1-.007-.391,1.177,1.177,0,0,1,.237-.391,2.339,2.339,0,0,0,.237-.321,8.533,8.533,0,0,0,.587-1.285A5.719,5.719,0,0,0,3.86,8.058a2.032,2.032,0,0,0-.035-.447q-.049-.321.007-.391a1.119,1.119,0,0,1,.307-.426q.251-.244.307-.314A5.776,5.776,0,0,0,5.04,5.3a5.245,5.245,0,0,0,.383-1.349A1.157,1.157,0,0,0,5.381,3.6a.9.9,0,0,1-.028-.37.779.779,0,0,1,.126-.251q.1-.139.251-.321t.237-.293a3.138,3.138,0,0,0,.23-.426q.118-.258.209-.489t.224-.5A2.439,2.439,0,0,1,6.9.5a1.6,1.6,0,0,1,.37-.328.937.937,0,0,1,.5-.161,2.894,2.894,0,0,1,.663.076L8.426.126A3.893,3.893,0,0,1,9.138,0H19.764a1.839,1.839,0,0,1,1.592.782A1.992,1.992,0,0,1,21.608,2.6L17.782,15.248a5.453,5.453,0,0,1-1,2.143,2.577,2.577,0,0,1-1.795.482H2.854a.617.617,0,0,0-.531.209.638.638,0,0,0-.014.6q.335.978,2.011.978H17.209a1.55,1.55,0,0,0,.782-.216,1,1,0,0,0,.489-.58L22.67,5.083a2.246,2.246,0,0,0,.07-.8,1.84,1.84,0,0,1,.824.6ZM8.7,4.915a.365.365,0,0,0,.028.314.3.3,0,0,0,.28.133H17.5a.583.583,0,0,0,.356-.133.63.63,0,0,0,.231-.314l.293-.893a.365.365,0,0,0-.028-.314.3.3,0,0,0-.28-.133H9.585a.583.583,0,0,0-.356.133A.63.63,0,0,0,9,4.021ZM7.545,8.49a.365.365,0,0,0,.028.314.3.3,0,0,0,.28.133h8.49A.583.583,0,0,0,16.7,8.8a.63.63,0,0,0,.231-.314l.293-.893a.365.365,0,0,0-.028-.314.3.3,0,0,0-.28-.133H8.426a.583.583,0,0,0-.356.133.63.63,0,0,0-.231.314Z" transform="translate(2179.332 7152)" fill="#8b93a8"/></g></svg>