<svg xmlns="http://www.w3.org/2000/svg" width="40" height="40" viewBox="0 0 40 40"><g transform="translate(-2314 -7155)"><circle cx="20" cy="20" r="20" transform="translate(2314 7155)" fill="#f3f6f8"/><path d="M8.469,8.469a23.893,23.893,0,0,0,4.885-.474,9.623,9.623,0,0,0,3.584-1.4V8.469q0,.761-1.136,1.411a10.245,10.245,0,0,1-3.088,1.031,22.213,22.213,0,0,1-4.245.38,22.213,22.213,0,0,1-4.245-.38A10.26,10.26,0,0,1,1.136,9.88Q0,9.23,0,8.469V6.594a9.616,9.616,0,0,0,3.584,1.4,23.939,23.939,0,0,0,4.885.474Zm0,8.469a23.893,23.893,0,0,0,4.885-.474,9.623,9.623,0,0,0,3.584-1.4v1.875q0,.761-1.136,1.411a10.245,10.245,0,0,1-3.088,1.031,22.213,22.213,0,0,1-4.245.38,22.213,22.213,0,0,1-4.245-.38,10.245,10.245,0,0,1-3.088-1.031Q0,17.7,0,16.938V15.063a9.616,9.616,0,0,0,3.584,1.4,23.939,23.939,0,0,0,4.885.474Zm0-4.234a23.893,23.893,0,0,0,4.885-.474,9.623,9.623,0,0,0,3.584-1.4V12.7q0,.761-1.136,1.411a10.245,10.245,0,0,1-3.088,1.031,22.213,22.213,0,0,1-4.245.38,22.213,22.213,0,0,1-4.245-.38,10.245,10.245,0,0,1-3.088-1.031Q0,13.465,0,12.7V10.829a9.616,9.616,0,0,0,3.584,1.4,23.939,23.939,0,0,0,4.885.474Zm0-12.7a22.207,22.207,0,0,1,4.245.38A10.252,10.252,0,0,1,15.8,1.411q1.136.65,1.136,1.411V4.234q0,.761-1.136,1.411a10.245,10.245,0,0,1-3.088,1.031,22.269,22.269,0,0,1-4.245.381,22.1,22.1,0,0,1-4.245-.38A10.294,10.294,0,0,1,1.136,5.646Q0,5,0,4.234V2.823q0-.761,1.136-1.411A10.245,10.245,0,0,1,4.223.381,22.244,22.244,0,0,1,8.469,0Z" transform="translate(2326 7165)" fill="#8b93a8"/></g></svg>