<svg xmlns="http://www.w3.org/2000/svg" width="40" height="40" viewBox="0 0 40 40"><g transform="translate(-2222 -7223)"><circle cx="20" cy="20" r="20" transform="translate(2222 7223)" fill="#f3f6f8"/><path d="M5.353,10.706h8.564V7.494a4.126,4.126,0,0,0-1.255-3.028A4.126,4.126,0,0,0,9.635,3.212,4.126,4.126,0,0,0,6.607,4.466,4.126,4.126,0,0,0,5.352,7.494v3.212ZM19.27,12.312v9.635a1.6,1.6,0,0,1-1.606,1.606H1.606a1.549,1.549,0,0,1-1.138-.468A1.549,1.549,0,0,1,0,21.946V12.311a1.549,1.549,0,0,1,.468-1.138A1.549,1.549,0,0,1,1.606,10.7h.535V7.494A7.212,7.212,0,0,1,4.349,2.208,7.211,7.211,0,0,1,9.635,0a7.213,7.213,0,0,1,5.286,2.208,7.209,7.209,0,0,1,2.208,5.286v3.212h.535a1.6,1.6,0,0,1,1.606,1.606Z" transform="translate(2232.365 7231.224)" fill="#8b93a8"/></g></svg>