<svg xmlns="http://www.w3.org/2000/svg" width="16.026" height="16.026" viewBox="0 0 16.026 16.026"><circle cx="3" cy="3" r="3" transform="translate(5 1)" fill="#f3f5f7"/><path d="M10.183,8.013H5.843a3.176,3.176,0,0,0-3.172,3.172v1.669a.5.5,0,0,0,.5.5h9.683a.5.5,0,0,0,.5-.5V11.185a3.176,3.176,0,0,0-3.172-3.172ZM3.339,0H2A2.006,2.006,0,0,0,0,2V3.339a.668.668,0,0,0,1.336,0V2A.668.668,0,0,1,2,1.336H3.339A.668.668,0,0,0,3.339,0Zm0,14.691H2a.668.668,0,0,1-.668-.668V12.688a.668.668,0,1,0-1.336,0v1.336a2.006,2.006,0,0,0,2,2H3.339a.668.668,0,1,0,0-1.336ZM14.023,0H12.688a.668.668,0,1,0,0,1.336h1.336A.668.668,0,0,1,14.691,2V3.339a.668.668,0,1,0,1.336,0V2A2.006,2.006,0,0,0,14.023,0Zm1.336,12.02a.668.668,0,0,0-.668.668v1.336a.668.668,0,0,1-.668.668H12.688a.668.668,0,1,0,0,1.336h1.336a2.006,2.006,0,0,0,2-2V12.688A.668.668,0,0,0,15.359,12.02Z" fill="#f3f5f7"/></svg>