<svg xmlns="http://www.w3.org/2000/svg" width="23.61" height="19.305" viewBox="0 0 23.61 19.305">
  <g id="friends-ico" transform="translate(-4257 -7689)">
    <g id="Group_170" data-name="Group 170" transform="translate(4257 7689)">
      <g id="Layer_2" data-name="Layer 2" transform="translate(0 0)">
        <circle id="Ellipse_9" data-name="Ellipse 9" cx="4.5" cy="4.5" r="4.5" transform="translate(3)" fill="#8b93a8"/>
        <path id="Path_212" data-name="Path 212" d="M13.565,15H9.284A5.291,5.291,0,0,0,4,20.285,3.629,3.629,0,0,0,7.625,23.91h7.6a3.629,3.629,0,0,0,3.626-3.626A5.29,5.29,0,0,0,13.565,15Z" transform="translate(-4 -4.605)" fill="#8b93a8"/>
      </g>
    </g>
    <g id="Group_171" data-name="Group 171" transform="translate(4270.941 7690.77)">
      <g id="Layer_2-2" data-name="Layer 2" transform="translate(0 0)">
        <ellipse id="Ellipse_9-2" data-name="Ellipse 9" cx="3.949" cy="3.51" rx="3.949" ry="3.51" transform="translate(0.099)" fill="#8b93a8"/>
        <path id="Path_212-2" data-name="Path 212" d="M11.526,15H8.261a3.716,3.716,0,0,0-2.374.618C6.856,16.53,8.6,17.7,8.212,21.8h4.579a2.768,2.768,0,0,0,2.765-2.765A4.035,4.035,0,0,0,11.526,15Z" transform="translate(-5.888 -7.072)" fill="#8b93a8"/>
      </g>
    </g>
  </g>
</svg>
