<svg xmlns="http://www.w3.org/2000/svg" width="20.43" height="17.366" viewBox="0 0 20.43 17.366">
  <g id="group-ico" transform="translate(0 -29.114)">
    <g id="Group_180" data-name="Group 180" transform="translate(0 29.114)">
      <path id="Path_214" data-name="Path 214" d="M131.171,37.607c1.931,0,3.5-1.9,3.5-4.246s-.514-4.246-3.5-4.246-3.5,1.9-3.5,4.246S129.24,37.607,131.171,37.607Z" transform="translate(-120.956 -29.114)" fill="#8b93a8"/>
      <path id="Path_215" data-name="Path 215" d="M81.83,202.683c-.065-4.086-.6-5.25-4.681-5.987a2.868,2.868,0,0,1-3.829,0c-4.039.729-4.6,1.876-4.679,5.854-.006.325-.009.342-.01.3,0,.071,0,.2,0,.429,0,0,.972,1.96,6.6,1.96s6.6-1.96,6.6-1.96c0-.146,0-.248,0-.317A2.576,2.576,0,0,1,81.83,202.683Z" transform="translate(-65.019 -187.877)" fill="#8b93a8"/>
      <path id="Path_216" data-name="Path 216" d="M262.99,51.916c1.568,0,2.84-1.544,2.84-3.449s-.417-3.449-2.84-3.449a4.049,4.049,0,0,0-1.06.126,6.96,6.96,0,0,1,.636,3.284,5.823,5.823,0,0,1-.872,3.108A2.432,2.432,0,0,0,262.99,51.916Z" transform="translate(-247.923 -44.181)" fill="#8b93a8"/>
      <path id="Path_217" data-name="Path 217" d="M289.3,185.987c-.053-3.318-.486-4.264-3.8-4.862a1.988,1.988,0,0,1-1.555.595c-.045,0-.089,0-.132,0A4.362,4.362,0,0,1,285.6,183.1c.8,1.1.985,2.573,1.023,4.739,2.231-.441,2.688-1.362,2.688-1.362,0-.12,0-.2,0-.259A2,2,0,0,1,289.3,185.987Z" transform="translate(-268.877 -173.126)" fill="#8b93a8"/>
      <path id="Path_218" data-name="Path 218" d="M50.794,51.917a2.433,2.433,0,0,0,1.3-.38,5.823,5.823,0,0,1-.872-3.108,6.961,6.961,0,0,1,.636-3.284,4.048,4.048,0,0,0-1.06-.126c-2.422,0-2.839,1.544-2.839,3.449S49.226,51.917,50.794,51.917Z" transform="translate(-45.431 -44.182)" fill="#8b93a8"/>
      <path id="Path_219" data-name="Path 219" d="M5.494,181.716c-.043,0-.086,0-.132,0a1.988,1.988,0,0,1-1.555-.595c-3.316.6-3.75,1.544-3.8,4.862a2.013,2.013,0,0,1-.006.229c0,.056,0,.139,0,.259,0,0,.457.921,2.688,1.362.038-2.167.222-3.641,1.023-4.739A4.363,4.363,0,0,1,5.494,181.716Z" transform="translate(0 -173.125)" fill="#8b93a8"/>
    </g>
  </g>
</svg>
