<svg xmlns="http://www.w3.org/2000/svg" width="26.162" height="15.71" viewBox="0 0 26.162 15.71">
  <g id="groups-light" transform="translate(2)">
    <g id="Path_454" data-name="Path 454" transform="translate(0 -47.914)" fill="none">
      <path d="M2.379,55.417a2.545,2.545,0,1,1,2.568-2.544A2.559,2.559,0,0,1,2.379,55.417Zm1.033,7.045H-1.067A.931.931,0,0,1-2,61.535V60.367a4.363,4.363,0,0,1,4.379-4.336,4.371,4.371,0,0,1,2.613.857.357.357,0,0,1,.075.5c-1.6,1.423-1.3,4.521-1.3,4.718a.357.357,0,0,1-.357.357Zm19.817-.27H18.75a.357.357,0,0,1-.357-.357c0-.2.242-3.068-1.432-4.594a.357.357,0,0,1,.053-.5,4.415,4.415,0,0,1,2.769-.978A4.363,4.363,0,0,1,24.162,60.1v1.168A.931.931,0,0,1,23.229,62.192Zm-3.446-6.951A2.545,2.545,0,1,1,22.351,52.7,2.559,2.559,0,0,1,19.783,55.241Z" stroke="none"/>
      <path d="M 19.78318405151367 51.35199737548828 C 19.02894401550293 51.35199737548828 18.41532516479492 51.95515060424805 18.41532516479492 52.69652938842773 C 18.41532516479492 53.43780899047852 19.02894401550293 54.04087829589844 19.78318405151367 54.04087829589844 C 20.53762435913086 54.04087829589844 21.15141487121582 53.43780899047852 21.15141487121582 52.69652938842773 C 21.15141487121582 51.95515060424805 20.53762435913086 51.35199737548828 19.78318405151367 51.35199737548828 M 2.378913879394531 51.52842712402344 C 1.624475479125977 51.52842712402344 1.01069450378418 52.1315803527832 1.01069450378418 52.87294769287109 C 1.01069450378418 53.61422729492188 1.624475479125977 54.21730804443359 2.378913879394531 54.21730804443359 C 3.13316535949707 54.21730804443359 3.746784210205078 53.61422729492188 3.746784210205078 52.87294769287109 C 3.746784210205078 52.1315803527832 3.13316535949707 51.52842712402344 2.378913879394531 51.52842712402344 M 19.78336524963379 56.96056747436523 C 19.34447479248047 56.96056747436523 18.91184425354004 57.05104827880859 18.5136833190918 57.22211837768555 C 19.17444801330566 58.20689392089844 19.54766464233398 59.49827194213867 19.5983829498291 60.99185943603516 L 22.96210479736328 60.99185943603516 L 22.96210479736328 60.09681701660156 C 22.96210479736328 58.36748886108398 21.53612518310547 56.96056747436523 19.78336524963379 56.96056747436523 M 2.378913879394531 57.2305793762207 C 0.6260547637939453 57.2305793762207 -0.8000049591064453 58.63747787475586 -0.8000049591064453 60.36678695678711 L -0.8000049591064453 61.2620964050293 L 2.548976898193359 61.26205825805664 C 2.562158584594727 59.99904251098633 2.776365280151367 58.56598663330078 3.487272262573242 57.42576217651367 C 3.136495590209961 57.29696273803711 2.763006210327148 57.2305793762207 2.378913879394531 57.2305793762207 M 19.78318405151367 50.15200042724609 C 21.19934463500977 50.15200042724609 22.35141372680664 51.29344940185547 22.35141372680664 52.69652938842773 C 22.35141372680664 54.0995979309082 21.19916534423828 55.24087905883789 19.78318405151367 55.24087905883789 C 18.36716461181641 55.24087905883789 17.21532440185547 54.09946823120117 17.21532440185547 52.69652938842773 C 17.21532440185547 51.2935791015625 18.36716461181641 50.15200042724609 19.78318405151367 50.15200042724609 Z M 2.378913879394531 50.32843017578125 C 3.79493522644043 50.32843017578125 4.946784973144531 51.46987915039062 4.946784973144531 52.87294769287109 C 4.946784973144531 54.27589797973633 3.79493522644043 55.41730880737305 2.378913879394531 55.41730880737305 C 0.9627647399902344 55.41730880737305 -0.1893062591552734 54.27571868896484 -0.1893062591552734 52.87294769287109 C -0.1893062591552734 51.47005844116211 0.9627647399902344 50.32843017578125 2.378913879394531 50.32843017578125 Z M 19.78336524963379 55.76057052612305 C 22.19778442382812 55.76057052612305 24.16210556030273 57.7056770324707 24.16210556030273 60.09681701660156 L 24.16210556030273 61.26472854614258 C 24.16210556030273 61.77589797973633 23.74351501464844 62.19186019897461 23.2288646697998 62.19186019897461 L 18.75001525878906 62.19186019897461 C 18.55301475524902 62.19186019897461 18.39296531677246 62.03197860717773 18.39296531677246 61.83479690551758 C 18.39296531677246 61.63779830932617 18.63469505310059 58.76725006103516 16.96110534667969 57.24039840698242 C 16.83716583251953 57.08713912963867 16.86050415039062 56.86223983764648 17.01412582397461 56.73811721801758 C 17.79289436340332 56.10787963867188 18.77634429931641 55.76057052612305 19.78336524963379 55.76057052612305 Z M 2.378913879394531 56.03057861328125 C 3.328584671020508 56.03057861328125 4.2325439453125 56.32693862915039 4.992303848266602 56.88750839233398 C 5.150964736938477 57.0046501159668 5.184663772583008 57.22821044921875 5.067604064941406 57.38692855834961 C 3.471405029296875 58.80950927734375 3.769325256347656 61.90781784057617 3.769325256347656 62.10499954223633 C 3.769325256347656 62.30200958251953 3.609273910522461 62.4620475769043 3.412094116210938 62.4620475769043 L 3.412094116210938 62.46209716796875 L -1.066755294799805 62.46209716796875 C -1.581356048583984 62.46209716796875 -2.000005722045898 62.04613876342773 -2.000005722045898 61.53470993041992 L -2.000005722045898 60.36678695678711 C -2.000005722045898 57.97588729858398 -0.03568458557128906 56.03057861328125 2.378913879394531 56.03057861328125 Z" stroke="none" fill="#f3f5f7"/>
    </g>
    <g id="Path_455" data-name="Path 455" transform="translate(-108.194)" fill="none">
      <path d="M124.122,15.71H114.43a1.165,1.165,0,0,1-1.168-1.159V12.909a6.014,6.014,0,0,1,12.027,0v1.643A1.165,1.165,0,0,1,124.122,15.71Zm-4.97-9.172a3.288,3.288,0,0,1-3.3-3.269,3.3,3.3,0,0,1,6.6,0,3.288,3.288,0,0,1-3.3,3.269Z" stroke="none"/>
      <path d="M 124.0890731811523 14.51024341583252 L 124.0890731811523 12.90860366821289 C 124.0890731811523 10.28745365142822 121.9297332763672 8.154993057250977 119.2755432128906 8.154993057250977 C 116.6213455200195 8.154993057250977 114.4619979858398 10.28745365142822 114.4619979858398 12.90860366821289 L 114.4619979858398 14.51024341583252 L 124.0890731811523 14.51024341583252 M 119.1514587402344 5.337783336639404 C 120.309455871582 5.337783336639404 121.2515563964844 4.409683704376221 121.2515563964844 3.268893480300903 C 121.2515563964844 2.128103494644165 120.309455871582 1.200003504753113 119.1514587402344 1.200003504753113 C 117.993522644043 1.200003504753113 117.0514755249023 2.128023624420166 117.0514755249023 3.268713474273682 C 117.0514755249023 4.409603595733643 117.993522644043 5.337783336639404 119.1514587402344 5.337783336639404 M 124.1215286254883 15.71024322509766 L 114.4295425415039 15.71024322509766 C 113.7857284545898 15.71024322509766 113.2619934082031 15.19038391113281 113.2619934082031 14.55121326446533 L 113.2619934082031 12.90860366821289 C 113.2619934082031 9.625743865966797 115.9593887329102 6.954993724822998 119.2755432128906 6.954993724822998 C 122.591682434082 6.954993724822998 125.2890777587891 9.625733375549316 125.2890777587891 12.90860366821289 L 125.2890777587891 14.55121326446533 C 125.2890777587891 15.19033336639404 124.7653656005859 15.71024322509766 124.1215286254883 15.71024322509766 Z M 119.1514587402344 6.537783622741699 L 119.1514282226562 6.537783622741699 C 117.3319625854492 6.537783622741699 115.8514785766602 5.071423530578613 115.8514785766602 3.268713474273682 C 115.8514785766602 1.466233491897583 117.3318481445312 3.519897518344806e-06 119.1514587402344 3.519897518344806e-06 C 120.9712219238281 3.519897518344806e-06 122.4515533447266 1.466363549232483 122.4515533447266 3.268893480300903 C 122.4515533447266 5.071553707122803 120.9710540771484 6.537783622741699 119.1514587402344 6.537783622741699 Z" stroke="none" fill="#f3f5f7"/>
    </g>
  </g>
</svg>
