<svg xmlns="http://www.w3.org/2000/svg" width="409" height="409" viewBox="0 0 409 409"><g transform="translate(-1257 -6768)"><circle cx="204.5" cy="204.5" r="204.5" transform="translate(1257 6768)" fill="#fff"/><g transform="translate(-1815 -246)"><g transform="translate(28 91)"><rect width="142" height="2" transform="translate(3080 7123)" fill="#caaf66"/><rect width="142" height="2" transform="translate(3274.5 7123)" fill="#caaf66"/><rect width="143" height="2" transform="translate(3082.509 7094.678) rotate(10)" fill="#caaf66"/><rect width="143" height="2" transform="matrix(-0.985, 0.174, -0.174, -0.985, 3414.164, 7095.663)" fill="#caaf66"/><rect width="143" height="2" transform="translate(3089.142 7066.2) rotate(20)" fill="#caaf66"/><rect width="143" height="2" transform="translate(3407.26 7067.14) rotate(160)" fill="#caaf66"/><rect width="142" height="2" transform="translate(3102.344 7040.067) rotate(30)" fill="#caaf66"/><rect width="142" height="2" transform="translate(3394.656 7040.933) rotate(150)" fill="#caaf66"/><rect width="142" height="2" transform="matrix(0.766, 0.643, -0.643, 0.766, 3119.564, 7015.902)" fill="#caaf66"/><rect width="142" height="2" transform="translate(3377.579 7016.668) rotate(140)" fill="#caaf66"/><rect width="142" height="2" transform="matrix(0.643, 0.766, -0.766, 0.643, 3140.377, 6995.212)" fill="#caaf66"/><rect width="142" height="2" transform="translate(3356.889 6995.854) rotate(130)" fill="#caaf66"/><rect width="142" height="2" transform="translate(3164.448 6979.185) rotate(60)" fill="#caaf66"/><rect width="142" height="2" transform="translate(3332.918 6979.685) rotate(120)" fill="#caaf66"/><rect width="142" height="2" transform="matrix(0.342, 0.94, -0.94, 0.342, 3190.701, 6966.033)" fill="#caaf66"/><rect width="142" height="2" transform="translate(3306.739 6966.375) rotate(110)" fill="#caaf66"/><rect width="142" height="2" transform="matrix(0.174, 0.985, -0.985, 0.174, 3219.678, 6958.795)" fill="#caaf66"/><rect width="142" height="2" transform="matrix(-0.174, 0.985, -0.985, -0.174, 3277.807, 6958.969)" fill="#caaf66"/><rect width="142" height="2" transform="translate(3248.9 6956) rotate(90)" fill="#caaf66"/><path d="M3007.633,6845h2.3s.175-12.052-11.063-12.052S2988,6845.016,2988,6845.016h2.451s-.313-9.351,8.421-9.351S3007.633,6845,3007.633,6845Z" transform="translate(249 280)" fill="#caaf66"/></g><path d="M5.39,0h6.37V-21.21c0-8.26,4.48-12.32,10.99-12.32,6.44,0,10.71,3.99,10.71,11.83V0h6.3V-22.61c0-10.99-6.79-16.45-15.33-16.45-5.39,0-10.15,2.17-12.67,6.23V-51.8H5.39ZM48.51-19.32C48.51-7.42,56.42.63,66.64.63c7.07,0,12.04-3.64,14.35-7.77V0h6.44V-38.36H80.99v7c-2.24-3.99-7.14-7.63-14.28-7.63C56.42-38.99,48.51-31.29,48.51-19.32Zm32.48.07c0,9.03-6.02,14.28-13.02,14.28S55.02-10.29,55.02-19.32s5.95-14.14,12.95-14.14S80.99-28.14,80.99-19.25Zm24.29-12.04v-7.07H98.91V18.2h6.37V-7.07A16.593,16.593,0,0,0,119.63.63c10.29,0,18.2-8.05,18.2-19.95,0-11.97-7.91-19.67-18.2-19.67C112.63-38.99,107.59-35.35,105.28-31.29Zm26.04,11.97c0,9.03-5.95,14.35-13.02,14.35-6.93,0-13.02-5.25-13.02-14.28,0-8.89,6.09-14.21,13.02-14.21C125.37-33.46,131.32-28.35,131.32-19.32ZM146.93,0h6.37V-38.36h-6.37Zm3.29-44.59a4.244,4.244,0,0,0,4.2-4.34,4.244,4.244,0,0,0-4.2-4.34,4.274,4.274,0,0,0-4.34,4.34A4.274,4.274,0,0,0,150.22-44.59Zm10.08,6.23L175.35,0h7.42l15.05-38.36h-6.79L179.13-5.88,167.16-38.36Zm60.83,4.76c6.58,0,12.18,4.13,12.11,11.62H209.02C209.72-29.47,214.9-33.6,221.13-33.6Zm17.92,21.77h-6.86c-1.4,4.13-5.04,7.07-10.78,7.07-6.51,0-11.97-4.27-12.46-12.04h30.66a34.53,34.53,0,0,0,.21-3.85c0-10.5-7.28-18.34-18.41-18.34-11.2,0-18.97,7.63-18.97,19.74,0,12.18,8.05,19.88,18.97,19.88C230.93.63,237.09-4.83,239.05-11.83Zm16.24-9.03c0-8.89,4.62-11.62,10.71-11.62h1.68v-6.58c-6.09,0-10.22,2.66-12.39,6.93v-6.23h-6.37V0h6.37Zm48.02,10.43c-.28-13.72-22.54-8.75-22.54-17.85,0-3.08,2.8-5.32,7.49-5.32,5.11,0,8.05,2.8,8.33,6.65h6.37c-.42-7.49-6.02-12.04-14.49-12.04-8.54,0-14.07,4.83-14.07,10.71,0,14.28,22.68,9.31,22.68,17.85,0,3.15-2.8,5.67-7.84,5.67-5.39,0-8.68-2.8-9.03-6.51h-6.58c.42,7,6.72,11.9,15.68,11.9C297.78.63,303.31-4.13,303.31-10.43ZM329.28-33.6c6.58,0,12.18,4.13,12.11,11.62H317.17C317.87-29.47,323.05-33.6,329.28-33.6ZM347.2-11.83h-6.86c-1.4,4.13-5.04,7.07-10.78,7.07-6.51,0-11.97-4.27-12.46-12.04h30.66a34.526,34.526,0,0,0,.21-3.85c0-10.5-7.28-18.34-18.41-18.34-11.2,0-18.97,7.63-18.97,19.74,0,12.18,8.05,19.88,18.97,19.88C339.08.63,345.24-4.83,347.2-11.83Z" transform="translate(3099.61 7275)" fill="#caaf66"/></g></g></svg>