<svg xmlns="http://www.w3.org/2000/svg" width="22.308" height="22.24" viewBox="0 0 22.308 22.24">
  <path id="home-stroke" d="M16.015,20.24h0c-.113,0-.235,0-.364-.007l-11.515,0L4,20.24c-1.024,0-1.625-.393-1.839-1.2L.257,10.113.237,10.03c-.292-1.264-.523-2.263.65-3.182L8.938.553A1.783,1.783,0,0,1,10.127,0,1.742,1.742,0,0,1,11.22.478c.036.03.068.056.093.074l8.158,6.356a2.205,2.205,0,0,1,.767,2.205l-1.956,9.158C18.057,19.817,17.57,20.24,16.015,20.24ZM10.5,12.287a1.5,1.5,0,0,0-1.5,1.5v2a1.5,1.5,0,0,0,3,0v-2A1.5,1.5,0,0,0,10.5,12.287Z" transform="translate(0.927 1)" fill="none" stroke="#f3f5f7" stroke-width="2"/>
</svg>
