<svg xmlns="http://www.w3.org/2000/svg" width="20.355" height="17.688" viewBox="0 0 20.355 17.688"><g transform="translate(0 -21.802)"><path d="M20.233,30.928a.831.831,0,0,0-1.15-.294l-2.789,1.615-.71.416V36.53l.661.391c.024,0,.024.024.049.024l2.74,1.59a.753.753,0,0,0,.465.147.825.825,0,0,0,.832-.832V34.573l.024-3.229a.64.64,0,0,0-.122-.416ZM3.939,29.68A3.939,3.939,0,1,0,0,25.741,3.936,3.936,0,0,0,3.939,29.68Zm0-5.554a1.615,1.615,0,1,1-1.615,1.615A1.583,1.583,0,0,1,3.939,24.126ZM13.921,29.9a4.689,4.689,0,0,1-2.1.514,4.575,4.575,0,0,1-2.544-.758H6.484a4.575,4.575,0,0,1-2.544.758,4.389,4.389,0,0,1-2.1-.514,1.913,1.913,0,0,0-.954,1.639v5.97a1.989,1.989,0,0,0,1.982,1.982H12.918A1.989,1.989,0,0,0,14.9,37.509v-5.97a1.99,1.99,0,0,0-.979-1.639Zm-2.1-.22a3.939,3.939,0,1,0-3.939-3.939,3.936,3.936,0,0,0,3.939,3.939Zm0-5.554A1.615,1.615,0,1,1,10.2,25.741,1.613,1.613,0,0,1,11.817,24.126Z" fill="#8b93a8"/></g></svg>