<svg xmlns="http://www.w3.org/2000/svg" width="22" height="19.336" viewBox="0 0 22 19.336">
  <g id="music-ico" transform="translate(0 -31)">
    <g id="Group_167" data-name="Group 167" transform="translate(0 31)">
      <path id="Path_210" data-name="Path 210" d="M20.711,41.431v-.763a9.711,9.711,0,0,0-19.422,0v.763A1.931,1.931,0,0,0,0,43.246V48.4a1.936,1.936,0,0,0,1.934,1.934H4.512a.644.644,0,0,0,.645-.645V41.957a.644.644,0,0,0-.645-.645H2.578v-.645a8.422,8.422,0,0,1,16.844,0v.645H17.488a.644.644,0,0,0-.645.645v7.734a.644.644,0,0,0,.645.645h2.578A1.936,1.936,0,0,0,22,48.4V43.246A1.931,1.931,0,0,0,20.711,41.431Z" transform="translate(0 -31)" fill="#8b93a8"/>
      <path id="Path_211" data-name="Path 211" d="M184.679,241.205a.645.645,0,0,0-1.1.455v4.63a1.911,1.911,0,0,0-.645-.119,1.934,1.934,0,1,0,1.934,1.934v-4.889l1.478,1.478a1.18,1.18,0,0,1,0,1.667.644.644,0,0,0,.911.911,2.47,2.47,0,0,0,0-3.49Z" transform="translate(-173.223 -231.992)" fill="#8b93a8"/>
    </g>
  </g>
</svg>
