<svg xmlns="http://www.w3.org/2000/svg" width="20.135" height="19.946" viewBox="0 0 20.135 19.946"><g transform="translate(0 -2.193)"><path d="M19.716,112.81a1.176,1.176,0,0,0,.268-1.474L17.321,106.6a2,2,0,0,0-1.713-.754,23.741,23.741,0,0,1-4.193,4.428,2.11,2.11,0,0,1-1.342.486,2.087,2.087,0,0,1-1.342-.486,23.741,23.741,0,0,1-4.193-4.428,1.99,1.99,0,0,0-1.713.754L.152,111.336a1.177,1.177,0,0,0,1.027,1.751H18.962a1.177,1.177,0,0,0,.754-.277ZM10.068,97.188a2.435,2.435,0,0,0-2.433,2.433.584.584,0,1,0,1.168,0,1.273,1.273,0,0,1,1.27-1.27.582.582,0,1,0,0-1.163Z" transform="translate(0 -90.947)" fill="#8b93a8"/><path d="M98.69,8.6A6.409,6.409,0,0,0,85.9,7.98a6.6,6.6,0,0,0,.085,1.841s.013.068.043.2a6.366,6.366,0,0,0,.43,1.27,18.57,18.57,0,0,0,5.463,6.844.559.559,0,0,0,.712,0A18.536,18.536,0,0,0,98.1,11.291a6.193,6.193,0,0,0,.43-1.27c.03-.132.043-.2.043-.2A6.093,6.093,0,0,0,98.69,8.6Zm-6.409,3.972a3.9,3.9,0,1,1,3.9-3.9A3.9,3.9,0,0,1,92.281,12.574Z" transform="translate(-82.213 0)" fill="#8b93a8"/></g></svg>