<svg xmlns="http://www.w3.org/2000/svg" width="13.429" height="16.759" viewBox="0 0 13.429 16.759">
  <g id="play" transform="translate(-4.729)">
    <g id="Group_211" data-name="Group 211" transform="translate(4.729 0)">
      <path id="Path_339" data-name="Path 339" d="M9.4,14.425a2.334,2.334,0,0,1-2.334,2.334h0a2.334,2.334,0,0,1-2.334-2.334V2.334A2.334,2.334,0,0,1,7.063,0h0A2.334,2.334,0,0,1,9.4,2.334Z" transform="translate(-4.729 0)" fill="#fff"/>
      <path id="Path_340" data-name="Path 340" d="M34.284,14.425a2.334,2.334,0,0,1-2.334,2.334h0a2.334,2.334,0,0,1-2.334-2.334V2.334A2.335,2.335,0,0,1,31.949,0h0a2.334,2.334,0,0,1,2.334,2.334Z" transform="translate(-20.855 0)" fill="#fff"/>
    </g>
  </g>
</svg>
