<svg id="post-fill" xmlns="http://www.w3.org/2000/svg" width="22" height="22" viewBox="0 0 22 22">
  <g id="Group_106" data-name="Group 106" transform="translate(0)">
    <path id="Path_136" data-name="Path 136" d="M20.4,169.333H1.6a1.612,1.612,0,0,0-1.6,1.6V182.4A1.612,1.612,0,0,0,1.6,184H20.4a1.612,1.612,0,0,0,1.6-1.6V170.937A1.612,1.612,0,0,0,20.4,169.333Zm-1.146,4.354v5.958a1.606,1.606,0,0,1-1.6,1.6H12.6a1.606,1.606,0,0,1-1.6-1.6v-5.958a1.606,1.606,0,0,1,1.6-1.6h5.042A1.606,1.606,0,0,1,19.25,173.687ZM8.479,177.125H3.438a.688.688,0,1,1,0-1.375H8.479a.688.688,0,1,1,0,1.375Zm.688,2.063a.693.693,0,0,1-.688.688H3.438a.688.688,0,1,1,0-1.375H8.479A.693.693,0,0,1,9.167,179.187Zm-.688-4.812H3.438a.688.688,0,1,1,0-1.375H8.479a.688.688,0,1,1,0,1.375Z" transform="translate(0 -162)" fill="#f3f5f7"/>
    <path id="Path_137" data-name="Path 137" d="M20.4,0H1.6A1.606,1.606,0,0,0,0,1.6V3.9A1.606,1.606,0,0,0,1.6,5.5H20.4A1.606,1.606,0,0,0,22,3.9V1.6A1.606,1.606,0,0,0,20.4,0Z" transform="translate(0)" fill="#f3f5f7"/>
  </g>
</svg>
