<svg id="scale-light" xmlns="http://www.w3.org/2000/svg" width="30" height="30" viewBox="0 0 30 30">
  <path id="Path_225" data-name="Path 225" d="M30,1.875v9.813a1.875,1.875,0,1,1-3.75,0V6.4l-6.981,6.981a1.875,1.875,0,1,1-2.652-2.652L23.6,3.75H18.312a1.875,1.875,0,0,1,0-3.75h9.813A1.875,1.875,0,0,1,30,1.875ZM0,28.125A1.875,1.875,0,0,0,1.875,30h9.813a1.875,1.875,0,0,0,0-3.75H6.4l6.98-6.981a1.875,1.875,0,0,0-2.652-2.652L3.75,23.6V18.312a1.875,1.875,0,0,0-3.75,0Z" transform="translate(0)" fill="#fff"/>
</svg>
