<svg id="text-bg-dark" xmlns="http://www.w3.org/2000/svg" width="20.646" height="20.646" viewBox="0 0 20.646 20.646">
  <g id="Group_223" data-name="Group 223">
    <path id="Path_356" data-name="Path 356" d="M.6,4.607a.6.6,0,0,0,.6-.6V1.21H4A.6.6,0,1,0,4,0H.6A.6.6,0,0,0,0,.6V4A.6.6,0,0,0,.6,4.607Z" fill="#a4b6e1"/>
    <path id="Path_357" data-name="Path 357" d="M401.767,0h-3.4a.6.6,0,0,0,0,1.21h2.792V4a.6.6,0,1,0,1.21,0V.6A.6.6,0,0,0,401.767,0Z" transform="translate(-381.725)" fill="#a4b6e1"/>
    <path id="Path_358" data-name="Path 358" d="M401.767,397.765a.6.6,0,0,0-.6.6v2.792H398.37a.6.6,0,0,0,0,1.21h3.4a.6.6,0,0,0,.6-.6v-3.4A.6.6,0,0,0,401.767,397.765Z" transform="translate(-381.725 -381.725)" fill="#a4b6e1"/>
    <path id="Path_359" data-name="Path 359" d="M4,401.162H1.21V398.37a.6.6,0,0,0-1.21,0v3.4a.6.6,0,0,0,.6.6H4a.6.6,0,1,0,0-1.21Z" transform="translate(0 -381.725)" fill="#a4b6e1"/>
    <path id="Path_360" data-name="Path 360" d="M105.539,92.3v-3.82a.343.343,0,0,0-.344-.343H92.684a.343.343,0,0,0-.344.343V92.3a.343.343,0,0,0,.344.344h1.824a.343.343,0,0,0,.343-.344V90.995a.344.344,0,0,1,.344-.344H97.34a.343.343,0,0,1,.344.344v9.442a.343.343,0,0,1-.344.344H96.4a.343.343,0,0,0-.344.344v1.824a.343.343,0,0,0,.344.343h5.075a.343.343,0,0,0,.344-.343v-1.824a.343.343,0,0,0-.344-.344h-.938a.343.343,0,0,1-.344-.344V90.995a.343.343,0,0,1,.344-.344h2.146a.344.344,0,0,1,.344.344V92.3a.343.343,0,0,0,.343.344H105.2A.343.343,0,0,0,105.539,92.3Z" transform="translate(-88.616 -84.586)" fill="#a4b6e1"/>
  </g>
</svg>
