<svg xmlns="http://www.w3.org/2000/svg" width="26.162" height="22.012" viewBox="0 0 26.162 22.012">
  <g id="videos-stroke" transform="translate(-2.049 -6)">
    <g id="Path_141" data-name="Path 141" transform="translate(-2.117)" fill="none">
      <path d="M8.28,7.769H26.2a4.061,4.061,0,0,1,.964.122A2.7,2.7,0,0,0,24.605,6H9.79A2.7,2.7,0,0,0,7.221,7.911,4.076,4.076,0,0,1,8.28,7.769Z" stroke="none"/>
      <path d="M 7.220996856689453 7.911023616790771 C 7.561107158660889 6.808653354644775 8.577266693115234 6.000003337860107 9.790236473083496 6.000003337860107 L 24.60515785217285 6.000003337860107 C 25.81099700927734 6.000003337860107 26.82180786132812 6.798543453216553 27.16845703125 7.89081335067749 C 26.85629653930664 7.814703464508057 26.53461647033691 7.768923282623291 26.20461654663086 7.768923282623291 L 8.279967308044434 7.768923282623291 C 7.916676998138428 7.768923282623291 7.561697006225586 7.81946325302124 7.220996856689453 7.911023616790771 Z" stroke="none" fill="#f3f5f7"/>
    </g>
    <g id="Path_142" data-name="Path 142" transform="translate(-0.986 -2.017)" fill="none">
      <path d="M5.365,12.774H26.77a3.541,3.541,0,0,1,1.029.153,2.836,2.836,0,0,0-2.724-1.951H7.15a2.884,2.884,0,0,0-2.54,1.516,2.844,2.844,0,0,0-.177.41,3.542,3.542,0,0,1,.932-.128Z" stroke="none"/>
      <path d="M 27.79878044128418 12.92686176300049 C 27.47294044494629 12.82816219329834 27.12808036804199 12.77405261993408 26.7701301574707 12.77405261993408 L 5.364730358123779 12.7746524810791 C 5.041860580444336 12.7746524810791 4.730300426483154 12.82162189483643 4.433000564575195 12.90248203277588 C 4.48235034942627 12.76157188415527 4.538840293884277 12.62362194061279 4.609590530395508 12.49221229553223 C 5.114400386810303 11.55692195892334 6.087760448455811 10.97600269317627 7.14970064163208 10.97600269317627 L 25.07435035705566 10.97600269317627 C 26.13331985473633 10.97600269317627 27.10489082336426 11.55394268035889 27.61089134216309 12.48508262634277 C 27.6870002746582 12.62600231170654 27.74705123901367 12.77524185180664 27.79878044128418 12.92686176300049 Z" stroke="none" fill="#f3f5f7"/>
    </g>
    <g id="Path_143" data-name="Path 143" transform="translate(0.049 -4.042)" fill="none">
      <path d="M25.784,16H4.378A2.378,2.378,0,0,0,2,18.378v11.3a2.378,2.378,0,0,0,2.378,2.378H25.784a2.378,2.378,0,0,0,2.378-2.378v-11.3A2.378,2.378,0,0,0,25.784,16Zm-7.525,9.6-3.418,2.072c-.279.161-1.486.789-2.155.4s-.521-1.3-.521-1.947V21.9c0-.645-.148-1.817.521-2.2s1.6.336,2.155.658l3.418,2.153c.558.322,1.286.761,1.286,1.533S18.817,25.277,18.259,25.6Z" stroke="none"/>
      <path d="M 4.378379821777344 16.99999618530273 C 3.618339538574219 16.99999618530273 3 17.61833763122559 3 18.37837791442871 L 3 29.6756763458252 C 3 30.43571662902832 3.618339538574219 31.05405807495117 4.378379821777344 31.05405807495117 L 25.78378105163574 31.05405807495117 C 26.54381942749023 31.05405807495117 27.16216087341309 30.43571662902832 27.16216087341309 29.6756763458252 L 27.16216087341309 18.37837791442871 C 27.16216087341309 17.61833763122559 26.54381942749023 16.99999618530273 25.78378105163574 16.99999618530273 L 4.378379821777344 16.99999618530273 M 18.77530288696289 21.65297508239746 C 19.36127090454102 21.99132537841797 20.54516983032227 22.6875171661377 20.54516983032227 24.04247665405273 C 20.54516983032227 25.42560958862305 19.30805969238281 26.14786338806152 18.76824951171875 26.4594898223877 L 15.34025001525879 28.53770637512207 C 15.07187080383301 28.69244766235352 14.12516975402832 29.19734764099121 13.21154022216797 29.19734764099121 C 12.82697105407715 29.19734764099121 12.48186111450195 29.11068725585938 12.18580055236816 28.93975639343262 C 11.09748077392578 28.31143760681152 11.13747024536133 27.06617736816406 11.15895080566406 26.39718627929688 C 11.16209983825684 26.29905700683594 11.16508102416992 26.20636749267578 11.16508102416992 26.12662696838379 L 11.16508102416992 21.90168762207031 C 11.16508102416992 21.82402801513672 11.16224098205566 21.72756767272949 11.15923118591309 21.62544631958008 C 11.13540077209473 20.81634712219238 11.09551048278809 19.46215629577637 12.185791015625 18.83269691467285 C 12.46710014343262 18.67028617858887 12.78061103820801 18.58793640136719 13.11762046813965 18.58793640136719 C 13.8869800567627 18.58793640136719 14.58344078063965 19.0220775604248 15.09197998046875 19.33907699584961 C 15.18381023406982 19.39631652832031 15.2705602645874 19.45038795471191 15.34067058563232 19.49085807800293 L 15.37365055084229 19.51075744628906 L 18.77530288696289 21.65297508239746 M 4.378379821777344 15.99999618530273 L 25.78378105163574 15.99999618530273 C 27.09724044799805 15.99999618530273 28.16216087341309 17.06491661071777 28.16216087341309 18.37837791442871 L 28.16216087341309 29.6756763458252 C 28.16216087341309 30.98913764953613 27.09724044799805 32.05405807495117 25.78378105163574 32.05405807495117 L 4.378379821777344 32.05405807495117 C 3.064920425415039 32.05405807495117 2 30.98913764953613 2 29.6756763458252 L 2 18.37837791442871 C 2 17.06491661071777 3.064920425415039 15.99999618530273 4.378379821777344 15.99999618530273 Z M 13.2115364074707 28.19734954833984 C 13.85806846618652 28.19734954833984 14.62521266937256 27.79566764831543 14.84076023101807 27.67138671875 L 18.25873947143555 25.59895706176758 C 18.81707000732422 25.27668762207031 19.54516983032227 24.81485748291016 19.54516983032227 24.04247665405273 C 19.54516983032227 23.27009773254395 18.81707000732422 22.83171653747559 18.25873947143555 22.50943756103516 L 14.84076023101807 20.35693740844727 C 14.28242969512939 20.0346565246582 13.35470581054688 19.31253814697266 12.685791015625 19.69872665405273 C 12.01687049865723 20.08491706848145 12.16508102416992 21.25655746459961 12.16508102416992 21.90168762207031 L 12.16508102416992 26.12662696838379 C 12.16508102416992 26.77176666259766 12.01687049865723 27.68753623962402 12.685791015625 28.07372665405273 C 12.83877182006836 28.16204833984375 13.01983261108398 28.19734954833984 13.2115364074707 28.19734954833984 Z" stroke="none" fill="#f3f5f7"/>
    </g>
  </g>
</svg>
