<svg xmlns="http://www.w3.org/2000/svg" width="22" height="22" viewBox="0 0 22 22">
  <g id="video-ico" transform="translate(-1 -1)">
    <path id="Path_206" data-name="Path 206" d="M21.6,7.2A2.2,2.2,0,0,0,19.4,5H6.2A2.2,2.2,0,0,0,4,7.2v.733H21.6Z" transform="translate(-0.8 -1.067)" fill="#8b93a8"/>
    <path id="Path_207" data-name="Path 207" d="M18.048,1h-8.8A2.2,2.2,0,0,0,7.18,2.467H20.116A2.2,2.2,0,0,0,18.048,1Z" transform="translate(-1.648)" fill="#8b93a8"/>
    <path id="Path_208" data-name="Path 208" d="M20.8,11H3.2A2.2,2.2,0,0,0,1,13.2V23.467a2.2,2.2,0,0,0,2.2,2.2H20.8a2.2,2.2,0,0,0,2.2-2.2V13.2A2.2,2.2,0,0,0,20.8,11Zm-5.133,8.653-4.217,2.64a1.562,1.562,0,0,1-2.383-1.327V15.7a1.562,1.562,0,0,1,2.383-1.327l4.217,2.64a1.555,1.555,0,0,1,0,2.64Z" transform="translate(0 -2.667)" fill="#8b93a8"/>
    <path id="Path_209" data-name="Path 209" d="M18.356,19.931,14.139,17.3H14.1a.071.071,0,0,0-.1.081v5.265a.1.1,0,0,0,.139.081l4.217-2.633a.1.1,0,0,0,0-.161Z" transform="translate(-3.467 -4.345)" fill="#8b93a8"/>
  </g>
</svg>
