<svg xmlns="http://www.w3.org/2000/svg" width="21.578" height="23.211" viewBox="0 0 21.578 23.211"><g transform="translate(-33.85 -17.038)"><path d="M53.423,20.412A2.256,2.256,0,0,1,50.7,21.4l-2.411,4.175a.388.388,0,0,1-.671-.389l2.41-4.174a2.25,2.25,0,1,1,3.392-.6Zm2,2.948V38.3H40.485V23.36h7.293l-.83,1.439a1.165,1.165,0,1,0,2.016,1.166l1.5-2.6Zm-2.642,7.43H43.126a.389.389,0,1,0,0,.777h9.659a.389.389,0,1,0,0-.777Zm0,3.1H43.126a.389.389,0,1,0,0,.777h9.659a.389.389,0,1,0,0-.777Zm-9.659-6.2a.389.389,0,0,0,0,.777h7.093a.389.389,0,1,0,0-.777Zm-3.419,9.889v-14.6a.388.388,0,0,1,.389-.389h1.778l-3.483-1.111L33.85,35.709Zm8.752,1.5H44.421l3.666,1.169Z" fill="#8b93a8" fill-rule="evenodd"/></g></svg>