<svg xmlns="http://www.w3.org/2000/svg" width="18" height="16.714" viewBox="0 0 18 16.714"><g transform="translate(-2 -3)"><path d="M17.268,3H4.732A2.739,2.739,0,0,0,2,5.732v8.351a2.731,2.731,0,0,0,2.591,2.726v1.845a1.045,1.045,0,0,0,.6.951,1,1,0,0,0,.463.109,1.047,1.047,0,0,0,.656-.231l1.806-1.427A5.817,5.817,0,0,1,11.7,16.809h5.567A2.734,2.734,0,0,0,20,14.076V5.732A2.739,2.739,0,0,0,17.268,3ZM7.143,9.146a.643.643,0,1,1,0-1.286h7.714a.643.643,0,1,1,0,1.286Zm4.5,2.166a.645.645,0,0,1-.643.643H7.143a.643.643,0,1,1,0-1.286H11A.641.641,0,0,1,11.643,11.312Z" transform="translate(0 0)" fill="#f3f5f7"/></g></svg>