<svg xmlns="http://www.w3.org/2000/svg" width="161.666" height="165" viewBox="0 0 161.666 165"><g transform="translate(-3 -3)"><g transform="translate(3 3)"><circle cx="40" cy="40" r="40" transform="translate(42)" fill="#f9d423"/><path d="M96.519,45.567A39.707,39.707,0,1,1,33.1,6.03a39.311,39.311,0,0,0-.908,8.424A39.707,39.707,0,0,0,71.9,54.161a39.444,39.444,0,0,0,24.619-8.594Z" transform="translate(24.532 2.564)" fill="#f9b53d"/><ellipse cx="28" cy="28.5" rx="28" ry="28.5" transform="translate(54 11)" fill="#f9b53d"/><circle cx="28.362" cy="28.362" r="28.362" transform="translate(49.634 15.599)" fill="#f9b53d"/><path d="M78.725,35.368a28.362,28.362,0,1,1-56.725,0,27.849,27.849,0,0,1,3.8-14.124A39.668,39.668,0,0,0,64.544,52.385a40.274,40.274,0,0,0,7.2-.681A28.34,28.34,0,0,0,28.24,17.613,28.362,28.362,0,0,1,78.725,35.368Z" transform="translate(31.889 4.34)" fill="#fc913a"/><path d="M43.585,10l5.528,11.2L61.479,23,52.53,31.72l2.113,12.315L43.585,38.221,32.526,44.035,34.639,31.72,25.691,23l12.363-1.8Z" transform="translate(38.666 9.854)" fill="#f9d423"/><path d="M33.177,22.9,28.1,25.562l.964-5.5A42.211,42.211,0,0,0,33.177,22.9Z" transform="translate(43.09 28.326)" fill="#f9b53d"/><rect width="51" height="17" rx="2" transform="translate(108 96)" fill="#f9d423"/><path d="M92.052,45.509v2.836a5.673,5.673,0,0,1-5.672,5.672H46.672A5.672,5.672,0,0,1,41,48.345V42.672A5.672,5.672,0,0,1,46.672,37h2.836a8.509,8.509,0,0,0,8.509,8.509Z" transform="translate(66.777 59.432)" fill="#f9b53d"/><path d="M44,37v5.672a2.836,2.836,0,1,0,5.672,0V37Zm14.181,0v5.672a2.836,2.836,0,1,0,5.672,0V37Zm14.181,0v5.672a2.836,2.836,0,1,0,5.672,0V37Z" transform="translate(72.286 59.432)" fill="#fc913a"/><rect width="51" height="17" rx="2" transform="translate(108 113)" fill="#f9d423"/><path d="M92.052,51.509v2.836a5.673,5.673,0,0,1-5.672,5.672H46.672A5.672,5.672,0,0,1,41,54.345V48.672A5.672,5.672,0,0,1,46.672,43h2.836a8.509,8.509,0,0,0,8.509,8.509Z" transform="translate(66.777 70.45)" fill="#f9b53d"/><path d="M44,43v5.672a2.836,2.836,0,0,0,5.672,0V43Zm14.181,0v5.672a2.836,2.836,0,0,0,5.672,0V43Zm14.181,0v5.672a2.836,2.836,0,0,0,5.672,0V43Z" transform="translate(72.286 70.45)" fill="#fc913a"/><rect width="51" height="18" rx="2" transform="translate(108 130)" fill="#f9d423"/><path d="M92.052,57.509v2.836a5.673,5.673,0,0,1-5.672,5.672H46.672A5.673,5.673,0,0,1,41,60.345V54.672A5.672,5.672,0,0,1,46.672,49h2.836a8.509,8.509,0,0,0,8.509,8.509Z" transform="translate(66.777 81.467)" fill="#f9b53d"/><path d="M44,49v5.672a2.836,2.836,0,0,0,5.672,0V49Zm14.181,0v5.672a2.836,2.836,0,0,0,5.672,0V49Zm14.181,0v5.672a2.836,2.836,0,0,0,5.672,0V49Z" transform="translate(72.286 81.467)" fill="#fc913a"/><rect width="51" height="17" rx="2" transform="translate(108 148)" fill="#f9d423"/><path d="M92.052,63.509v2.836a5.673,5.673,0,0,1-5.672,5.672H46.672A5.673,5.673,0,0,1,41,66.345V60.672A5.672,5.672,0,0,1,46.672,55h2.836a8.509,8.509,0,0,0,8.509,8.509Z" transform="translate(66.777 92.485)" fill="#f9b53d"/><path d="M44,55v5.672a2.836,2.836,0,0,0,5.672,0V55Zm14.181,0v5.672a2.836,2.836,0,0,0,5.672,0V55Zm14.181,0v5.672a2.836,2.836,0,0,0,5.672,0V55Z" transform="translate(72.286 92.485)" fill="#fc913a"/><rect width="51" height="17" rx="2" transform="translate(57 113)" fill="#f9d423"/><path d="M65.544,43a8.509,8.509,0,0,1-8.509,8.509H40.017A8.509,8.509,0,0,1,31.509,43H28.672A5.672,5.672,0,0,0,23,48.672v5.672a5.672,5.672,0,0,0,5.672,5.672H68.38a5.672,5.672,0,0,0,5.672-5.672V48.672A5.672,5.672,0,0,0,68.38,43Z" transform="translate(33.725 70.45)" fill="#f9b53d"/><path d="M26,43v5.672a2.836,2.836,0,0,0,5.672,0V43Zm14.181,0v5.672a2.836,2.836,0,0,0,5.672,0V43Zm14.181,0v5.672a2.836,2.836,0,0,0,5.672,0V43Z" transform="translate(39.234 70.45)" fill="#fc913a"/><rect width="51" height="18" rx="2" transform="translate(57 130)" fill="#f9d423"/><path d="M65.544,49a8.509,8.509,0,0,1-8.509,8.509H40.017A8.509,8.509,0,0,1,31.509,49H28.672A5.672,5.672,0,0,0,23,54.672v5.672a5.673,5.673,0,0,0,5.672,5.672H68.38a5.673,5.673,0,0,0,5.672-5.672V54.672A5.672,5.672,0,0,0,68.38,49Z" transform="translate(33.725 81.467)" fill="#f9b53d"/><path d="M26,49v5.672a2.836,2.836,0,0,0,5.672,0V49Zm14.181,0v5.672a2.836,2.836,0,0,0,5.672,0V49Zm14.181,0v5.672a2.836,2.836,0,0,0,5.672,0V49Z" transform="translate(39.234 81.467)" fill="#fc913a"/><rect width="51" height="17" rx="2" transform="translate(57 148)" fill="#f9d423"/><path d="M65.544,55a8.509,8.509,0,0,1-8.509,8.509H40.017A8.509,8.509,0,0,1,31.509,55H28.672A5.672,5.672,0,0,0,23,60.672v5.672a5.673,5.673,0,0,0,5.672,5.672H68.38a5.673,5.673,0,0,0,5.672-5.672V60.672A5.672,5.672,0,0,0,68.38,55Z" transform="translate(33.725 92.485)" fill="#f9b53d"/><path d="M26,55v5.672a2.836,2.836,0,0,0,5.672,0V55Zm14.181,0v5.672a2.836,2.836,0,0,0,5.672,0V55Zm14.181,0v5.672a2.836,2.836,0,0,0,5.672,0V55Z" transform="translate(39.234 92.485)" fill="#fc913a"/><rect width="51" height="18" rx="2" transform="translate(6 130)" fill="#f9d423"/><path d="M47.544,49a8.509,8.509,0,0,1-8.509,8.509H22.017A8.509,8.509,0,0,1,13.509,49H10.672A5.672,5.672,0,0,0,5,54.672v5.672a5.673,5.673,0,0,0,5.672,5.672H50.38a5.673,5.673,0,0,0,5.672-5.672V54.672A5.672,5.672,0,0,0,50.38,49Z" transform="translate(0.672 81.467)" fill="#f9b53d"/><path d="M8,49v5.672a2.836,2.836,0,0,0,5.672,0V49Zm14.181,0v5.672a2.836,2.836,0,0,0,5.672,0V49Zm14.181,0v5.672a2.836,2.836,0,0,0,5.672,0V49Z" transform="translate(6.181 81.467)" fill="#fc913a"/><rect width="51" height="17" rx="2" transform="translate(6 148)" fill="#f9d423"/><path d="M47.544,55a8.509,8.509,0,0,1-8.509,8.509H22.017A8.509,8.509,0,0,1,13.509,55H10.672A5.672,5.672,0,0,0,5,60.672v5.672a5.672,5.672,0,0,0,5.672,5.672H50.38a5.672,5.672,0,0,0,5.672-5.672V60.672A5.672,5.672,0,0,0,50.38,55Z" transform="translate(0.672 92.485)" fill="#f9b53d"/><path d="M8,55v5.672a2.836,2.836,0,0,0,5.672,0V55Zm14.181,0v5.672a2.836,2.836,0,0,0,5.672,0V55Zm14.181,0v5.672a2.836,2.836,0,0,0,5.672,0V55Z" transform="translate(6.181 92.485)" fill="#fc913a"/><path d="M46.955,89.973l22.69-25.526a2.837,2.837,0,0,0-4.237-3.772L42.718,86.2a2.837,2.837,0,1,0,4.237,3.772ZM74.03,71.9,65.521,80.41a2.836,2.836,0,1,0,4.011,4.011l8.508-8.509A2.836,2.836,0,1,0,74.03,71.9ZM90.216,31.362H87.38V28.526a2.836,2.836,0,0,0-5.672,0v2.836H78.871a2.836,2.836,0,1,0,0,5.672h2.836v2.836a2.836,2.836,0,1,0,5.672,0V37.035h2.836a2.836,2.836,0,0,0,0-5.672ZM61.854,14.345H64.69v2.836a2.836,2.836,0,1,0,5.672,0V14.345H73.2a2.836,2.836,0,0,0,0-5.672H70.363V5.836a2.836,2.836,0,0,0-5.672,0V8.672H61.854a2.836,2.836,0,1,0,0,5.672Z" transform="translate(68.613 -3)" fill="#ede574"/><circle cx="2.836" cy="2.836" r="2.836" transform="translate(155.962 2.867)" fill="#ede574"/><ellipse cx="3" cy="2.5" rx="3" ry="2.5" transform="translate(130 34)" fill="#ede574"/><ellipse cx="2.5" cy="3" rx="2.5" ry="3" transform="translate(151 51)" fill="#ede574"/><path d="M25.69,37.035h2.836v2.836a2.836,2.836,0,0,0,5.672,0V37.035h2.836a2.836,2.836,0,1,0,0-5.672H34.2V28.526a2.836,2.836,0,0,0-5.672,0v2.836H25.69a2.836,2.836,0,0,0,0,5.672ZM17.181,62.561H14.345V59.725a2.836,2.836,0,0,0-5.672,0v2.836H5.836a2.836,2.836,0,0,0,0,5.672H8.672V71.07a2.836,2.836,0,1,0,5.672,0V68.234h2.836a2.836,2.836,0,1,0,0-5.672ZM20.017,8.672H17.181V5.836a2.836,2.836,0,0,0-5.672,0V8.672H8.672a2.836,2.836,0,1,0,0,5.672h2.836v2.836a2.836,2.836,0,1,0,5.672,0V14.345h2.836a2.836,2.836,0,1,0,0-5.672Z" transform="translate(-3 -3)" fill="#ede574"/><circle cx="2.836" cy="2.836" r="2.836" transform="translate(31.168 2.867)" fill="#ede574"/><circle cx="2.5" cy="2.5" r="2.5" transform="translate(6 34)" fill="#ede574"/><circle cx="3" cy="3" r="3" transform="translate(25 54)" fill="#ede574"/><path d="M17.181,45.672H14.345V42.836a2.836,2.836,0,0,0-5.672,0v2.836H5.836a2.836,2.836,0,0,0,0,5.672H8.672v2.836a2.836,2.836,0,0,0,5.672,0V51.345h2.836a2.836,2.836,0,1,0,0-5.672Z" transform="translate(-3 64.941)" fill="#ede574"/><ellipse cx="3" cy="2.5" rx="3" ry="2.5" transform="translate(22 105)" fill="#ede574"/><circle cx="2.836" cy="2.836" r="2.836" transform="translate(35.453 117.704)" fill="#ede574"/><path d="M88.042,41.752a2.836,2.836,0,0,0-3.891.97L75.642,56.9A2.836,2.836,0,1,0,80.5,59.825l8.508-14.181a2.836,2.836,0,0,0-.97-3.891ZM37.665,30.968a2.838,2.838,0,0,0-4.271,3.738L53.247,57.4a2.838,2.838,0,1,0,4.271-3.738ZM66.728,41.346a2.836,2.836,0,0,0-2.836,2.836v8.509a2.836,2.836,0,1,0,5.672,0V44.182A2.836,2.836,0,0,0,66.728,41.346ZM14.723,33.552a2.841,2.841,0,0,0-3.767,4.254L36.482,60.5a2.841,2.841,0,1,0,3.767-4.254Z" transform="translate(9.851 46.577)" fill="#ede574"/></g></g></svg>