<svg xmlns="http://www.w3.org/2000/svg" width="40" height="40" viewBox="0 0 40 40"><g transform="translate(-2178 -7303)"><circle cx="20" cy="20" r="20" transform="translate(2178 7303)" fill="#f3f6f8"/><g transform="translate(2185.75 7310.999)"><path d="M12.674,23.827a2.978,2.978,0,0,0,2.978-2.978H9.7A2.978,2.978,0,0,0,12.674,23.827Zm1.482-22.19a1.489,1.489,0,1,0-2.964,0,7.449,7.449,0,0,0-5.964,7.3c0,1.635-.745,8.935-2.978,10.424H23.1C20.865,17.87,20.12,10.57,20.12,8.935A7.448,7.448,0,0,0,14.156,1.637Z" fill="#8b93a8"/></g></g></svg>