<svg xmlns="http://www.w3.org/2000/svg" width="40" height="40" viewBox="0 0 40 40"><g transform="translate(-2129 -7218)"><circle cx="20" cy="20" r="20" transform="translate(2129 7218)" fill="#f3f6f8"/><path d="M3,15.363A12.363,12.363,0,1,1,15.363,27.726,12.363,12.363,0,0,1,3,15.363Zm2.473,0a9.89,9.89,0,1,0,9.89-9.89A9.89,9.89,0,0,0,5.473,15.363Zm5.257-1.919c.3-.628.8-2.408,1.152-2.408s.226.894.545.972c.269.066.062-.4.808-.482a3.058,3.058,0,0,1,1.558.373,3.86,3.86,0,0,0,1.693,0s-.429-.65.1-.863,1.239.574,1.264,1.082-1.167.849-1.167.849l1.167.7s.343-1.085,1.071-1.1c.649-.012,1.463,1.174,1.082,1.71s-.626.167-.626.167a15.47,15.47,0,0,1-1.528,1.388,1.144,1.144,0,0,1-.875,0s-.216.4,0,.585a5.936,5.936,0,0,0,1.578.9s3.5.57,3.614,1.284-2.789,4.327-3.246,4.327H17.835c-.441-.779.713-3.269.713-3.269a4.14,4.14,0,0,1-.713-1.058,2.061,2.061,0,0,1,.23-1.105l-1.581-.728a2.473,2.473,0,0,1-1.257-.33c-.417-.33-.636-2.163-.636-2.163l-1.508-1.105s-1.31,1.664-1.737,1.451-.915-.556-.616-1.183Zm8.122-2.594c-1.043,0-3.555-1.328-3.133-2.04,0-1.021,2.639-.868,3.205-.868a5.726,5.726,0,0,1,2.723,1.051c.77.612-.326,1.487-.707,1.857s-1.045,0-2.089,0Z" transform="translate(2134 7223)" fill="#8b93a8" fill-rule="evenodd"/></g></svg>