<svg xmlns="http://www.w3.org/2000/svg" width="20.135" height="18.586" viewBox="0 0 20.135 18.586"><g transform="translate(-6 -6)"><path d="M6,12.2V11.034A3.489,3.489,0,0,1,9.485,7.549h1.162V8.71a1.549,1.549,0,0,0,3.1,0V7.549h4.646V8.71a1.549,1.549,0,0,0,3.1,0V7.549H22.65a3.489,3.489,0,0,1,3.485,3.485V12.2ZM11.421,8.71a.774.774,0,0,0,1.549,0V6.774a.774.774,0,0,0-1.549,0Zm7.744-1.936V8.71a.774.774,0,0,0,1.549,0V6.774a.774.774,0,0,0-1.549,0Zm6.97,6.2V21.1a3.489,3.489,0,0,1-3.485,3.485H9.485A3.489,3.489,0,0,1,6,21.1V12.97ZM18.9,17.349H17.3L16.8,15.828a.774.774,0,0,0-1.471,0l-.494,1.521h-1.6a.774.774,0,0,0-.455,1.4l1.294.94-.494,1.521a.774.774,0,0,0,1.192.866l1.293-.94,1.293.94a.774.774,0,0,0,1.192-.866l-.494-1.521,1.294-.94a.774.774,0,0,0-.455-1.4Z" fill="#8b93a8"/></g></svg>