<svg xmlns="http://www.w3.org/2000/svg" width="26.163" height="21.525" viewBox="0 0 26.163 21.525">
  <g id="friends-solid" transform="translate(-3.942)">
    <path id="Path_454" data-name="Path 454" d="M22.574,66.648H16.438a.489.489,0,0,1-.489-.489c0-.27.3-4.473-1.73-6.474A.489.489,0,0,1,14.291,59a5.269,5.269,0,0,1,3.562-1.161,5.977,5.977,0,0,1,6,5.941v1.6A1.276,1.276,0,0,1,22.574,66.648Zm-4.721-9.524a3.486,3.486,0,1,1,3.519-3.486A3.506,3.506,0,0,1,17.853,57.124Z" transform="translate(6.252 -47.085)" fill="#f3f5f7"/>
    <path id="Path_455" data-name="Path 455" d="M128.141,21.525H114.862a1.6,1.6,0,0,1-1.6-1.588V17.687a8.24,8.24,0,0,1,16.479,0v2.251A1.6,1.6,0,0,1,128.141,21.525Zm-6.81-12.568a4.506,4.506,0,0,1-4.521-4.479,4.522,4.522,0,0,1,9.043,0,4.505,4.505,0,0,1-4.522,4.479Z" transform="translate(-109.319)" fill="#f3f5f7"/>
  </g>
</svg>
