<svg xmlns="http://www.w3.org/2000/svg" width="23.999" height="22" viewBox="0 0 23.999 22">
  <g id="gallery-stroke" transform="translate(-0.001 -2)">
    <g id="Group_109" data-name="Group 109">
      <g id="Group_108" data-name="Group 108">
        <g id="Path_138" data-name="Path 138" fill="none">
          <path d="M6.25,19.5a3.744,3.744,0,0,1-3.542-2.551l-.035-.115A3.648,3.648,0,0,1,2.5,15.75V8.932L.074,17.03a2.271,2.271,0,0,0,1.592,2.755l15.463,4.141A2.293,2.293,0,0,0,17.7,24a2.23,2.23,0,0,0,2.161-1.635l.9-2.865Z" stroke="none"/>
          <path d="M 17.70499801635742 23 C 18.26186943054199 23 18.76384925842285 22.62643051147461 18.89859962463379 22.11172866821289 L 18.91205787658691 22.06500053405762 L 19.40422821044922 20.5 L 8.20159912109375 20.5 L 17.38324928283691 22.9588508605957 C 17.48980903625488 22.98615837097168 17.59804916381836 23 17.70499801635742 23 M 2.863216400146484 19.07037734985352 C 2.376764535903931 18.57175064086914 1.995152354240417 17.96137237548828 1.760878682136536 17.2698802947998 L 1.751328706741333 17.24015998840332 L 1.715698719024658 17.12308883666992 C 1.569041728973389 16.6374454498291 1.500468492507935 16.20242881774902 1.500001430511475 15.75458335876465 L 1.037657141685486 17.29789161682129 C 0.8734090328216553 17.95667839050293 1.270246505737305 18.63656806945801 1.928448796272278 18.82004737854004 L 2.863216400146484 19.07037734985352 M 17.70499801635742 24 C 17.51499938964844 24 17.32199859619141 23.97599983215332 17.12899780273438 23.92599868774414 L 1.665998697280884 19.78499984741211 C 0.472998708486557 19.45599937438965 -0.23800128698349 18.22099876403809 0.07399871200323105 17.02999877929688 L 2.499998807907104 8.931999206542969 L 2.499998807907104 15.75 C 2.499998807907104 16.09000015258789 2.550998687744141 16.43000030517578 2.672998666763306 16.83399963378906 L 2.707998752593994 16.94899940490723 C 3.224998712539673 18.47500038146973 4.648998737335205 19.5 6.249998569488525 19.5 L 20.76699829101562 19.5 L 19.86599922180176 22.36499977111816 C 19.61099815368652 23.33899879455566 18.70099830627441 24 17.70499801635742 24 Z" stroke="none" fill="#f3f5f7"/>
        </g>
      </g>
      <g id="Path_139" data-name="Path 139" fill="none">
        <path d="M9,9A2,2,0,1,0,7,7,2,2,0,0,0,9,9Z" stroke="none"/>
        <path d="M 9 8 C 9.551400184631348 8 10 7.551400184631348 10 7 C 10 6.448599815368652 9.551400184631348 6 9 6 C 8.448599815368652 6 8 6.448599815368652 8 7 C 8 7.551400184631348 8.448599815368652 8 9 8 M 9 9 C 7.896999835968018 9 7 8.102999687194824 7 7 C 7 5.896999835968018 7.896999835968018 5 9 5 C 10.10299968719482 5 11 5.896999835968018 11 7 C 11 8.102999687194824 10.10299968719482 9 9 9 Z" stroke="none" fill="#f3f5f7"/>
      </g>
    </g>
    <g id="Path_140" data-name="Path 140" fill="none">
      <path d="M21.5,2H6.5A2.5,2.5,0,0,0,4,4.5v11A2.5,2.5,0,0,0,6.5,18h15A2.5,2.5,0,0,0,24,15.5V4.5A2.5,2.5,0,0,0,21.5,2ZM6.5,4h15a.5.5,0,0,1,.5.5v7.1L18.841,7.913A1.791,1.791,0,0,0,17.5,7.3a1.749,1.749,0,0,0-1.336.631L12.45,12.387,11.24,11.18a1.755,1.755,0,0,0-2.48,0L6,13.939V4.5A.5.5,0,0,1,6.5,4Z" stroke="none"/>
      <path d="M 23 4.5 L 23 14.30253982543945 L 18.07997131347656 8.56171989440918 C 17.94258117675781 8.400543212890625 17.73422241210938 8.30728816986084 17.49202346801758 8.298186302185059 C 17.27533721923828 8.303398132324219 17.07186126708984 8.40179443359375 16.93231010437012 8.569080352783203 L 12.51817035675049 13.86746978759766 L 10.53289031982422 11.88710975646973 C 10.39096069335938 11.7451696395874 10.20157051086426 11.66699981689453 9.99962043762207 11.66699981689453 C 9.797950744628906 11.66699981689453 9.609020233154297 11.74497985839844 9.46697998046875 11.88722991943359 L 5.166391372680664 16.1862678527832 C 5.415876388549805 16.6691780090332 5.920009613037109 17 6.5 17 L 21.5 17 C 22.32709884643555 17 23 16.32710075378418 23 15.5 L 23 4.5 M 6.5 2 L 21.5 2 C 22.87800025939941 2 24 3.121999740600586 24 4.5 L 24 15.5 C 24 16.87800025939941 22.87800025939941 18 21.5 18 L 6.5 18 C 5.121999740600586 18 4 16.87800025939941 4 15.5 L 4 4.5 C 4 3.121999740600586 5.121999740600586 2 6.5 2 Z M 22 11.59899997711182 L 22 4.5 C 22 4.223999977111816 21.7760009765625 4 21.5 4 L 6.5 4 C 6.224000930786133 4 6 4.223999977111816 6 4.5 L 6 13.93900012969971 L 8.760000228881836 11.18000030517578 C 9.443000793457031 10.49599933624268 10.55600357055664 10.49600124359131 11.23999977111816 11.18000030517578 L 12.44999980926514 12.38700008392334 L 16.16399955749512 7.928999900817871 C 16.49600028991699 7.531000137329102 16.98200035095215 7.300999641418457 17.5 7.298000335693359 C 18.02099990844727 7.310000419616699 18.50600051879883 7.520000457763672 18.84099960327148 7.913000106811523 L 22 11.59899997711182 Z" stroke="none" fill="#f3f5f7"/>
    </g>
  </g>
</svg>
