<svg xmlns="http://www.w3.org/2000/svg" width="22.135" height="17.968" viewBox="0 0 22.135 17.968">
  <g id="gallery-ico" transform="translate(0 -48.2)">
    <path id="Path_203" data-name="Path 203" d="M20.1,48.2H2.038A2.038,2.038,0,0,0,0,50.238V64.13a2.026,2.026,0,0,0,.853,1.657l7.673-7.673a.649.649,0,0,1,.917,0l2.32,2.32,5.1-5.1a.649.649,0,0,1,.917,0l4.357,4.357V50.238A2.038,2.038,0,0,0,20.1,48.2ZM5.511,56.443a2.732,2.732,0,1,1,2.732-2.732A2.735,2.735,0,0,1,5.511,56.443Zm0-4.168a1.435,1.435,0,1,0,1.435,1.435A1.437,1.437,0,0,0,5.511,52.276Zm11.808,4.436-5.1,5.1a.649.649,0,0,1-.917,0l-2.32-2.32L2.306,66.168H20.1a2.038,2.038,0,0,0,2.038-2.038v-2.6Z" fill="#8b93a8"/>
  </g>
</svg>
