<svg xmlns="http://www.w3.org/2000/svg" width="60.478" height="50.232" viewBox="0 0 60.478 50.232">
  <g id="gold-acc" transform="translate(-5.5 -8.979)">
    <path id="rect816" d="M11.776,37a1.712,1.712,0,0,0-1.636,1.208L5.576,53.042a1.712,1.712,0,0,0,1.636,2.215H23.757a1.712,1.712,0,1,0,0-3.423H9.529l3.51-11.411H29.911l3.51,11.411H29.463a1.712,1.712,0,1,0,0,3.423h6.276a1.712,1.712,0,0,0,1.636-2.215L32.81,38.208A1.712,1.712,0,0,0,31.174,37Z" transform="translate(0 3.953)" fill="#8b93a8"/>
    <path id="path821" d="M36.414,37a1.712,1.712,0,0,0-1.636,1.208l-1.634,5.309a1.712,1.712,0,1,0,3.272,1.007l1.261-4.1H54.549l3.51,11.411H36.984a1.712,1.712,0,1,0,0,3.423H60.377a1.712,1.712,0,0,0,1.636-2.215L57.448,38.208A1.712,1.712,0,0,0,55.812,37Z" transform="translate(3.889 3.953)" fill="#8b93a8"/>
    <path id="path1037" d="M24.059,24a1.712,1.712,0,0,0-1.636,1.208l-2.808,9.129a1.712,1.712,0,1,0,3.272,1.007l2.436-7.921H42.194l2.436,7.921A1.712,1.712,0,1,0,47.9,34.337l-2.808-9.129A1.712,1.712,0,0,0,43.457,24Z" transform="translate(1.981 2.119)" fill="#8b93a8"/>
    <path id="path835" d="M32.185,8.979A1.712,1.712,0,0,0,30.5,10.715V16.42a1.712,1.712,0,1,0,3.423,0V10.715a1.712,1.712,0,0,0-1.738-1.736Z" transform="translate(3.527 0)" fill="#8b93a8"/>
    <path id="path1107" d="M47,14.886a1.712,1.712,0,0,0-2.419.036l-4.034,4.034a1.712,1.712,0,1,0,2.421,2.421L47,17.343a1.712,1.712,0,0,0,0-2.457Z" transform="translate(4.874 0.765)" fill="#8b93a8"/>
    <path id="path1109" d="M17.924,14.886a1.712,1.712,0,0,1,2.419.036l4.034,4.034a1.712,1.712,0,1,1-2.421,2.421l-4.034-4.034a1.712,1.712,0,0,1,0-2.457Z" transform="translate(1.679 0.765)" fill="#8b93a8"/>
  </g>
</svg>
