<svg xmlns="http://www.w3.org/2000/svg" width="87.981" height="90.865" viewBox="0 0 87.981 90.865">
  <g id="Group_223" data-name="Group 223" transform="translate(-0.108 -0.001)">
    <path id="Path_351" data-name="Path 351" d="M173.761,40.808,185.9,19.723a13.069,13.069,0,0,0,1.517-5.764V12.9a13.675,13.675,0,0,0-27.3,0v1.062a11.856,11.856,0,0,0,1.517,5.916ZM163.143,12.745a10.648,10.648,0,0,1,21.237,0v1.062a8.976,8.976,0,0,1-1.062,4.4l-9.556,16.534L164.2,18.206a8.976,8.976,0,0,1-1.061-4.4Zm0,0" transform="translate(-129.662 0)" fill="#cbb16a"/>
    <path id="Path_352" data-name="Path 352" d="M206.177,43.35a6.068,6.068,0,1,0-6.068-6.068A6.086,6.086,0,0,0,206.177,43.35Zm0-9.1a3.034,3.034,0,1,1-3.034,3.034A3.043,3.043,0,0,1,206.177,34.249Zm0,0" transform="translate(-162.077 -25.296)" fill="#cbb16a"/>
    <path id="Path_353" data-name="Path 353" d="M80.505,110.5v-7.282H59.268v3.034h18.2v3.034H56.235v3.034H78.078l6.978,13.956v1.213H3.143v-1.213l6.977-13.956H31.964v-3.034H10.727v-3.034h18.2v-3.034H7.693V110.5L.109,125.665v8.646a6.837,6.837,0,0,0,3.034,5.613V174.51H85.056V139.924a6.839,6.839,0,0,0,3.034-5.613v-8.646ZM60.027,138.1a3.755,3.755,0,0,1-3.792-3.792v-3.792h7.585v3.792A3.756,3.756,0,0,1,60.027,138.1Zm-46.266-7.585h7.585v3.792a3.792,3.792,0,1,1-7.585,0Zm10.618,0h7.585v3.792a3.792,3.792,0,1,1-7.585,0Zm10.618,0h7.585v3.792a3.792,3.792,0,1,1-7.585,0Zm10.618,0H53.2v3.792a3.792,3.792,0,1,1-7.585,0Zm21.237,0h7.585v3.792a3.792,3.792,0,1,1-7.585,0Zm-56.126,0v3.792A3.756,3.756,0,0,1,6.935,138.1a3.755,3.755,0,0,1-3.792-3.792v-3.792ZM6.935,141.138a6.474,6.474,0,0,0,5.309-2.578,6.746,6.746,0,0,0,9.4,1.213,9.186,9.186,0,0,0,1.214-1.213,6.746,6.746,0,0,0,9.4,1.213,9.186,9.186,0,0,0,1.214-1.213,6.746,6.746,0,0,0,9.4,1.213,9.186,9.186,0,0,0,1.214-1.213,6.746,6.746,0,0,0,9.4,1.213,9.186,9.186,0,0,0,1.214-1.213,7.264,7.264,0,0,0,4.551,2.578v24.271H6.176V140.986a1.365,1.365,0,0,0,.758.152Zm-.758,27.3H59.268v3.034H6.176Zm75.846,3.034H62.3V140.683a7.339,7.339,0,0,0,3.034-2.124,6.746,6.746,0,0,0,9.4,1.213,9.189,9.189,0,0,0,1.214-1.213,6.472,6.472,0,0,0,5.309,2.578,1.368,1.368,0,0,0,.758-.152Zm3.034-37.164a3.792,3.792,0,1,1-7.585,0v-3.792h7.585Zm0,0" transform="translate(0 -83.643)" fill="#cbb16a"/>
    <path id="Path_354" data-name="Path 354" d="M344.109,359.215h3.034v3.034h-3.034Zm0,0" transform="translate(-278.773 -291.102)" fill="#cbb16a"/>
    <path id="Path_355" data-name="Path 355" d="M95.133,319.215H48.109V335.9H95.133ZM92.1,332.867H51.143V322.249H92.1Zm0,0" transform="translate(-38.899 -258.687)" fill="#cbb16a"/>
  </g>
</svg>
