<svg xmlns="http://www.w3.org/2000/svg" width="22" height="22" viewBox="0 0 22 22"><path d="M18,22H4a4,4,0,0,1-4-4V4A4,4,0,0,1,4,0H18a4,4,0,0,1,4,4V18A4,4,0,0,1,18,22ZM11.02,10.8a4.13,4.13,0,0,0-4.146,4.1v1.133a.8.8,0,0,0,.806.8h6.682a.8.8,0,0,0,.8-.8V14.9A4.13,4.13,0,0,0,11.02,10.8Zm-6,.8A3.008,3.008,0,0,0,2,14.586v.806a.642.642,0,0,0,.643.64H5.732a.247.247,0,0,0,.247-.247c0-.01,0-.031,0-.061a3.964,3.964,0,0,1,.9-3.193.246.246,0,0,0-.051-.344A3.012,3.012,0,0,0,5.019,11.6Zm12-.185a3.049,3.049,0,0,0-1.91.673.247.247,0,0,0-.036.346,4.074,4.074,0,0,1,.989,3.119c0,.024,0,.04,0,.049a.246.246,0,0,0,.246.247H19.4a.642.642,0,0,0,.643-.64v-.8A3.008,3.008,0,0,0,17.02,11.411Zm-12-3.746A1.755,1.755,0,1,0,6.791,9.419,1.764,1.764,0,0,0,5.019,7.665Zm12-.122A1.754,1.754,0,1,0,18.79,9.3,1.764,1.764,0,0,0,17.02,7.544ZM10.934,6a2.254,2.254,0,1,0,2.275,2.254A2.267,2.267,0,0,0,10.934,6Z" fill="#f3f5f7"/></svg>