<svg xmlns="http://www.w3.org/2000/svg" width="21.3" height="21.24" viewBox="0 0 21.3 21.24">
  <path id="home-fill" d="M15.948,20.24h0c-.113,0-.235,0-.364-.007l-11.516,0-.131,0c-1.025,0-1.626-.393-1.84-1.2L.19,10.113l-.019-.082C-.122,8.766-.354,7.767.82,6.848L8.871.553A1.783,1.783,0,0,1,10.061,0a1.742,1.742,0,0,1,1.092.478c.036.03.068.056.093.074L19.4,6.908a2.2,2.2,0,0,1,.766,2.205l-1.955,9.158C17.99,19.817,17.5,20.24,15.948,20.24Zm-5.515-7.953a1.5,1.5,0,0,0-1.5,1.5v2a1.5,1.5,0,0,0,3,0v-2A1.5,1.5,0,0,0,10.433,12.287Z" transform="translate(0.492 0.5)" fill="#f3f5f7" stroke="#f3f5f7" stroke-width="1"/>
</svg>
