<svg xmlns="http://www.w3.org/2000/svg" width="20.135" height="17.696" viewBox="0 0 20.135 17.696"><path d="M211,240h3.539v1.18H211Zm0,0" transform="translate(-202.702 -230.562)" fill="#8b93a8"/><path d="M16.335,84.984H13.017v.59a.59.59,0,0,1-.59.59H7.708a.59.59,0,0,1-.59-.59v-.59H3.8a1.768,1.768,0,0,1-1.679-1.21L0,77.41V90.293a1.772,1.772,0,0,0,1.77,1.77h16.6a1.772,1.772,0,0,0,1.77-1.77V77.41l-2.121,6.364a1.767,1.767,0,0,1-1.679,1.21Zm0,0" transform="translate(0 -74.366)" fill="#8b93a8"/><path d="M37.221,0H32.5a1.772,1.772,0,0,0-1.77,1.77v.59H25.809l2.225,6.675a.59.59,0,0,0,.56.4h3.318v-.59a.59.59,0,0,1,.59-.59h4.719a.59.59,0,0,1,.59.59v.59h3.318a.59.59,0,0,0,.56-.4L43.914,2.36H38.991V1.77A1.772,1.772,0,0,0,37.221,0ZM31.912,2.36V1.77a.59.59,0,0,1,.59-.59h4.719a.59.59,0,0,1,.59.59v.59Zm0,0" transform="translate(-24.794)" fill="#8b93a8"/></svg>