<svg id="logout-ico" xmlns="http://www.w3.org/2000/svg" width="20.43" height="15.192" viewBox="0 0 20.43 15.192">
  <g id="XMLID_2_" transform="translate(0 0)">
    <path id="XMLID_4_" d="M11.687,109.644H.929a.929.929,0,1,1,0-1.857H11.687l-1.2-1.2a.929.929,0,0,1,1.313-1.313l2.786,2.786c.022.021.042.044.061.067l.013.018c.014.018.028.036.041.055l.01.017c.013.02.025.04.037.061l.006.013c.012.023.023.046.033.07l0,.009c.01.025.019.05.027.076l0,.01c.007.026.014.051.02.078,0,.008,0,.016,0,.024s.008.044.01.066a.916.916,0,0,1,0,.185c0,.023-.006.045-.01.067s0,.016,0,.023c-.005.027-.012.053-.02.079l0,.009c-.008.026-.017.052-.028.077l0,.008c-.01.024-.021.047-.033.07l-.006.012c-.011.021-.024.041-.037.062l-.01.017c-.013.019-.027.037-.041.055l-.013.018c-.019.023-.04.046-.061.067L11.8,112.157a.929.929,0,0,1-1.313-1.313Z" transform="translate(5.572 -101.119)" fill="#8b93a8"/>
    <path id="XMLID_5_" d="M110.441,42.3a7.591,7.591,0,0,1,6.309,3.364.929.929,0,0,1-1.542,1.036,5.739,5.739,0,1,0-.008,6.4.929.929,0,0,1,1.539,1.04,7.6,7.6,0,1,1-6.3-11.844Z" transform="translate(-102.845 -42.299)" fill="#8b93a8"/>
  </g>
</svg>
