<svg xmlns="http://www.w3.org/2000/svg" width="20.355" height="18.535" viewBox="0 0 20.355 18.535"><g transform="translate(0 -2.861)"><path d="M8.244,15.864V21.4h3.868V15.864Zm9.567-2.589a4.065,4.065,0,0,1-2.544-.863,4.182,4.182,0,0,1-5.089,0,4.065,4.065,0,0,1-2.544.863,4.065,4.065,0,0,1-2.544-.863,4.065,4.065,0,0,1-2.544.863,3.956,3.956,0,0,1-.586-.041v7.552a.61.61,0,0,0,.611.611H7.023V15.864a1.222,1.222,0,0,1,1.221-1.221h3.868a1.222,1.222,0,0,1,1.221,1.221V21.4h4.454a.61.61,0,0,0,.611-.611V13.23a3.466,3.466,0,0,1-.586.045ZM0,9.99a1.892,1.892,0,0,0,.745,1.461,2.875,2.875,0,0,0,1.8.6A2.34,2.34,0,0,0,5.089,9.989H0Zm5.089,0a1.892,1.892,0,0,0,.745,1.461,2.873,2.873,0,0,0,1.8.6,2.34,2.34,0,0,0,2.544-2.064H5.089Zm5.089,0a1.892,1.892,0,0,0,.745,1.461,2.873,2.873,0,0,0,1.8.6,2.34,2.34,0,0,0,2.544-2.064H10.178ZM16.952,3.2a.613.613,0,0,0-.545-.338H3.949A.613.613,0,0,0,3.4,3.2L.611,8.768H19.745ZM15.267,9.99a1.892,1.892,0,0,0,.745,1.461,2.873,2.873,0,0,0,1.8.6,2.34,2.34,0,0,0,2.544-2.064H15.267Z" fill="#8b93a8"/></g></svg>