<svg xmlns="http://www.w3.org/2000/svg" width="13.43" height="13.429" viewBox="0 0 13.43 13.429">
  <g id="mute" transform="translate(-12687.92 -14393)">
    <g id="Group_217" data-name="Group 217" transform="translate(12687.92 14393)">
      <path id="Path_345" data-name="Path 345" d="M9.3,15.429a.764.764,0,0,1-.516-.2L5.347,12.072H3.459A1.406,1.406,0,0,1,2,10.729V6.7A1.406,1.406,0,0,1,3.459,5.357H5.347L8.782,2.2a.775.775,0,0,1,.8-.146.673.673,0,0,1,.45.62V14.757a.673.673,0,0,1-.45.62A.79.79,0,0,1,9.3,15.429Z" transform="translate(-2 -2)" fill="#fff"/>
    </g>
    <path id="Path_346" data-name="Path 346" d="M26.764,11.83a.726.726,0,0,0-1.026,0l-.882.881-.882-.881a.726.726,0,1,0-1.026,1.026l.881.881-.881.881a.726.726,0,1,0,1.026,1.026l.882-.881.882.881a.726.726,0,1,0,1.026-1.026l-.881-.881.881-.881A.726.726,0,0,0,26.764,11.83Z" transform="translate(12674.373 14386.02)" fill="#fff"/>
  </g>
</svg>
