<svg xmlns="http://www.w3.org/2000/svg" width="21.609" height="21" viewBox="0 0 21.609 21">
  <g id="order-ico" transform="translate(0 -1)">
    <path id="Path_213" data-name="Path 213" d="M.913,1a.913.913,0,0,0,0,1.826H2.538a.633.633,0,0,1,.6.433l3.01,9.033A2.226,2.226,0,0,1,6.2,13.535l-.248.993a2.36,2.36,0,0,0,2.268,2.907H19.174a.913.913,0,1,0,0-1.826H8.217a.493.493,0,0,1-.5-.637l.187-.747a.585.585,0,0,1,.567-.443h9.787a.913.913,0,0,0,.867-.624l2.434-7.3a.913.913,0,0,0-.867-1.2H5.985a.633.633,0,0,1-.6-.433L4.519,1.624A.913.913,0,0,0,3.652,1ZM7.3,18.348A1.826,1.826,0,1,0,9.13,20.174,1.826,1.826,0,0,0,7.3,18.348Zm10.957,0a1.826,1.826,0,1,0,1.826,1.826A1.826,1.826,0,0,0,18.261,18.348Z" transform="translate(0 0)" fill="#8b93a8"/>
  </g>
</svg>
