<svg xmlns="http://www.w3.org/2000/svg" xmlns:xlink="http://www.w3.org/1999/xlink" width="50.232" height="50.232" viewBox="0 0 50.232 50.232">
  <defs>
    <clipPath id="clip-path">
      <path id="path3039" d="M0-682.665H50.233v50.233H0Z" transform="translate(0 682.665)" fill="#8b93a8"/>
    </clipPath>
  </defs>
  <g id="platinum-acc" transform="translate(-1 4.998)">
    <g id="g3033" transform="translate(1 -4.998)">
      <g id="g3035">
        <g id="g3037" clip-path="url(#clip-path)">
          <g id="g3043" transform="translate(21.137 21.158)">
            <path id="path3045" d="M0-242.91a15.867,15.867,0,0,0,3.982.5,15.84,15.84,0,0,0,15.84-15.84,15.87,15.87,0,0,0-.5-3.959" transform="translate(0 262.203)" fill="none" stroke="#8b93a8" stroke-linecap="round" stroke-linejoin="round" stroke-miterlimit="10" stroke-width="2.2"/>
          </g>
          <g id="g3047" transform="translate(9.279 17.44)">
            <path id="path3049" d="M-24.938,0a15.768,15.768,0,0,0-1.981,7.676,15.868,15.868,0,0,0,.51,4" transform="translate(26.919)" fill="none" stroke="#8b93a8" stroke-linecap="round" stroke-linejoin="round" stroke-miterlimit="10" stroke-width="2.2"/>
          </g>
          <g id="g3051" transform="translate(17.443 9.276)">
            <path id="path3053" d="M-146.293-6.23a15.87,15.87,0,0,0-3.944-.495,15.768,15.768,0,0,0-7.676,1.981" transform="translate(157.913 6.725)" fill="none" stroke="#8b93a8" stroke-linecap="round" stroke-linejoin="round" stroke-miterlimit="10" stroke-width="2.2"/>
          </g>
          <g id="g3055" transform="translate(0.984 0.981)">
            <path id="path3057" d="M-571.813-178.859l-.393,3.086a3.176,3.176,0,0,0,.623,2.324l1.975,2.6a3.176,3.176,0,0,1,0,3.845l-1.975,2.6a3.176,3.176,0,0,0-.623,2.324l.412,3.236a3.175,3.175,0,0,1-1.922,3.33l-3.009,1.261a3.175,3.175,0,0,0-1.7,1.7l-1.261,3.009a3.176,3.176,0,0,1-3.33,1.922l-3.236-.412a3.176,3.176,0,0,0-2.324.623l-2.6,1.975a3.176,3.176,0,0,1-3.845,0l-2.6-1.975a3.176,3.176,0,0,0-2.324-.623l-3.132.4M-614.379-159l.394-3.09a3.176,3.176,0,0,0-.623-2.324l-1.975-2.6a3.176,3.176,0,0,1,0-3.845l1.975-2.6a3.176,3.176,0,0,0,.623-2.324l-.412-3.236a3.175,3.175,0,0,1,1.922-3.33l3.009-1.261a3.176,3.176,0,0,0,1.7-1.7l1.261-3.009a3.176,3.176,0,0,1,3.33-1.922l3.236.412a3.175,3.175,0,0,0,2.324-.622l2.6-1.975a3.176,3.176,0,0,1,3.845,0l2.6,1.975a3.175,3.175,0,0,0,2.324.622l3.043-.387" transform="translate(617.231 193.065)" fill="none" stroke="#8b93a8" stroke-linecap="round" stroke-linejoin="round" stroke-miterlimit="10" stroke-width="2.2"/>
          </g>
          <g id="g3059" transform="translate(18.348 24.105)">
            <path id="path3061" d="M0-27.949l2.22-2.22" transform="translate(0 30.169)" fill="none" stroke="#8b93a8" stroke-linecap="round" stroke-linejoin="round" stroke-miterlimit="10" stroke-width="2.2"/>
          </g>
          <g id="g3063" transform="translate(19.631 25.396)">
            <path id="path3065" d="M0,0,5.373,5.373" fill="none" stroke="#8b93a8" stroke-linecap="round" stroke-linejoin="round" stroke-miterlimit="10" stroke-width="2.2"/>
          </g>
          <g id="g3067" transform="translate(22.601 21.916)">
            <path id="path3069" d="M0,0,5.55,5.55" fill="none" stroke="#8b93a8" stroke-linecap="round" stroke-linejoin="round" stroke-miterlimit="10" stroke-width="2.2"/>
          </g>
          <g id="g3071" transform="translate(24.873 16.601)">
            <path id="path3073" d="M-69.744-108.305l-5.54-5.54,8.363,2.484c.155.046.164-.062.042-.184l-5.363-5.363" transform="translate(75.284 116.908)" fill="none" stroke="#8b93a8" stroke-linecap="round" stroke-linejoin="round" stroke-miterlimit="10" stroke-width="2.2"/>
          </g>
          <g id="g3075" transform="translate(7.822 42.853)">
            <path id="path3077" d="M0,0,2.649,2.649" fill="none" stroke="#8b93a8" stroke-linecap="round" stroke-linejoin="round" stroke-miterlimit="10" stroke-width="2.2"/>
          </g>
          <g id="g3079" transform="translate(4.921 38.089)">
            <path id="path3081" d="M-54.913-7.977a2.252,2.252,0,0,1-.031,3.163c-.429.429-1.181,1.195-1.181,1.195s-1.144-1.13-1.58-1.566c-.358-.358-1.57-1.562-1.57-1.562l1.2-1.2A2.252,2.252,0,0,1-54.913-7.977Z" transform="translate(59.275 8.611)" fill="none" stroke="#8b93a8" stroke-linecap="round" stroke-linejoin="round" stroke-miterlimit="10" stroke-width="2.2"/>
          </g>
          <g id="g3083" transform="translate(9.723 35.15)">
            <path id="path3085" d="M0,0,5.545,5.545C5.6,5.512,6.933,4.158,6.933,4.158" fill="none" stroke="#8b93a8" stroke-linecap="round" stroke-linejoin="round" stroke-miterlimit="10" stroke-width="2.2"/>
          </g>
          <g id="g3087" transform="translate(15.155 29.613)">
            <path id="path3089" d="M-42.834-98.241l-3.388-7.556a.178.178,0,0,1,.233-.233l7.537,3.407" transform="translate(46.236 106.044)" fill="none" stroke="#8b93a8" stroke-linecap="round" stroke-linejoin="round" stroke-miterlimit="10" stroke-width="2.2"/>
          </g>
          <g id="g3091" transform="translate(17.844 32.311)">
            <path id="path3093" d="M0-38.934l3.092-3.092" transform="translate(0 42.027)" fill="none" stroke="#8b93a8" stroke-linecap="round" stroke-linejoin="round" stroke-miterlimit="10" stroke-width="2.2"/>
          </g>
          <g id="g3095" transform="translate(29.954 11.818)">
            <path id="path3097" d="M0-38.746l4.169,4.169a1.835,1.835,0,0,0,1.843.453,2.109,2.109,0,0,0,1.05-.583,2.26,2.26,0,0,0,.564-.9,1.875,1.875,0,0,0-.382-2.052L3.078-41.824" transform="translate(0 41.824)" fill="none" stroke="#8b93a8" stroke-linecap="round" stroke-linejoin="round" stroke-miterlimit="10" stroke-width="2.2"/>
          </g>
          <g id="g3099" transform="translate(35.654 5.449)">
            <path id="path3101" d="M-57.679-125.042l-4.547-6.349a.161.161,0,0,1,.207-.24l6.844,3.913a.16.16,0,0,0,.219-.221l-3.961-6.792a.161.161,0,0,1,.237-.21l6.4,4.5" transform="translate(62.261 134.974)" fill="none" stroke="#8b93a8" stroke-linecap="round" stroke-linejoin="round" stroke-miterlimit="10" stroke-width="2.2"/>
          </g>
          <g id="g3103" transform="translate(0.98 0.978)">
            <path id="path3105" d="M-449.465-16.057-483.89,18.368a4.354,4.354,0,0,0,0,6.158l5.143,5.143a4.354,4.354,0,0,0,6.158,0l34.425-34.425a4.354,4.354,0,0,0,0-6.158l-5.143-5.143A4.354,4.354,0,0,0-449.465-16.057Z" transform="translate(485.165 17.332)" fill="none" stroke="#8b93a8" stroke-linecap="round" stroke-linejoin="round" stroke-miterlimit="10" stroke-width="2.2"/>
          </g>
          <g id="g3107" transform="translate(13.918 13.916)">
            <path id="path3109" d="M0,0H0" fill="none" stroke="#8b93a8" stroke-linecap="round" stroke-linejoin="round" stroke-miterlimit="10" stroke-width="2.2"/>
          </g>
        </g>
      </g>
    </g>
  </g>
</svg>
