<svg id="post-stroke" xmlns="http://www.w3.org/2000/svg" width="22" height="22" viewBox="0 0 22 22">
  <g id="Group_106" data-name="Group 106" transform="translate(0)">
    <g id="Path_136" data-name="Path 136" transform="translate(0 -162)" fill="none">
      <path d="M20.4,169.333H1.6a1.612,1.612,0,0,0-1.6,1.6V182.4A1.612,1.612,0,0,0,1.6,184H20.4a1.612,1.612,0,0,0,1.6-1.6V170.937A1.612,1.612,0,0,0,20.4,169.333Zm-1.146,4.354v5.958a1.606,1.606,0,0,1-1.6,1.6H12.6a1.606,1.606,0,0,1-1.6-1.6v-5.958a1.606,1.606,0,0,1,1.6-1.6h5.042A1.606,1.606,0,0,1,19.25,173.687ZM8.479,177.125H3.438a.688.688,0,1,1,0-1.375H8.479a.688.688,0,1,1,0,1.375Zm.688,2.063a.693.693,0,0,1-.688.688H3.438a.688.688,0,1,1,0-1.375H8.479A.693.693,0,0,1,9.167,179.187Zm-.688-4.812H3.438a.688.688,0,1,1,0-1.375H8.479a.688.688,0,1,1,0,1.375Z" stroke="none"/>
      <path d="M 1.604204177856445 170.3329925537109 C 1.276704788208008 170.3329925537109 1.000024795532227 170.6096801757812 1.000024795532227 170.9371795654297 L 1.000024795532227 182.3955078125 C 1.000024795532227 182.7229919433594 1.276704788208008 182.9996795654297 1.604204177856445 182.9996795654297 L 20.39588356018066 182.9996795654297 C 20.72338485717773 182.9996795654297 21.00006484985352 182.7229919433594 21.00006484985352 182.3955078125 L 21.00006484985352 170.9372253417969 C 21.00005340576172 170.6096954345703 20.72335433959961 170.3329925537109 20.39584350585938 170.3329925537109 L 1.604204177856445 170.3329925537109 M 17.64584350585938 182.2496795654297 L 12.60420417785645 182.2496795654297 C 11.25186538696289 182.2496795654297 10.13697528839111 181.2135009765625 10.01172637939453 179.8934020996094 C 9.743953704833984 180.4721832275391 9.157705307006836 180.8746795654297 8.479204177856445 180.8746795654297 L 3.437524795532227 180.8746795654297 C 2.507034301757812 180.8746795654297 1.750024795532227 180.1176605224609 1.750024795532227 179.1871795654297 C 1.750024795532227 178.62060546875 2.030662536621094 178.1183776855469 2.460248947143555 177.8121795654297 C 2.030662536621094 177.5059661865234 1.750024795532227 177.0037384033203 1.750024795532227 176.4371795654297 C 1.750024795532227 175.87060546875 2.030662536621094 175.3683776855469 2.460248947143555 175.0621795654297 C 2.030662536621094 174.7559661865234 1.750024795532227 174.2537384033203 1.750024795532227 173.6871795654297 C 1.750024795532227 172.7566833496094 2.507034301757812 171.9996795654297 3.437524795532227 171.9996795654297 L 8.479204177856445 171.9996795654297 C 9.206717491149902 171.9996795654297 9.828180313110352 172.4624481201172 10.06469345092773 173.1090698242188 C 10.32830333709717 171.9503784179688 11.36685371398926 171.0829925537109 12.60420417785645 171.0829925537109 L 17.64588356018066 171.0829925537109 C 19.08181381225586 171.0829925537109 20.25002288818359 172.251220703125 20.25002288818359 173.6871795654297 L 20.25002288818359 179.6455078125 C 20.25002288818359 181.0814514160156 19.08179473876953 182.2496795654297 17.64584350585938 182.2496795654297 M 10.00002384185791 174.4181671142578 C 9.875633239746094 174.6759338378906 9.687636375427246 174.8974151611328 9.456479072570801 175.0621795654297 C 9.687636375427246 175.2269439697266 9.875633239746094 175.4484100341797 10.00002384185791 175.7061767578125 L 10.00002384185791 174.4181671142578 M 10.00002384185791 177.1681671142578 C 9.875633239746094 177.4259338378906 9.687636375427246 177.6474151611328 9.456479072570801 177.8121795654297 C 9.687636375427246 177.9769439697266 9.875633239746094 178.1984100341797 10.00002384185791 178.4561767578125 L 10.00002384185791 177.1681671142578 M 1.604204177856445 169.3329925537109 L 20.39584350585938 169.3329925537109 C 21.27584457397461 169.3329925537109 22.00002479553223 170.0571746826172 22.00006294250488 170.9371795654297 L 22.00006294250488 182.3955078125 C 22.00006294250488 183.2754974365234 21.2758846282959 183.9996795654297 20.39588356018066 183.9996795654297 L 1.604204177856445 183.9996795654297 C 0.7242031097412109 183.9996795654297 2.47955322265625e-05 183.2754974365234 2.47955322265625e-05 182.3955078125 L 2.47955322265625e-05 170.9371795654297 C 2.47955322265625e-05 170.0571746826172 0.7242031097412109 169.3329925537109 1.604204177856445 169.3329925537109 Z M 17.64584350585938 181.2496795654297 C 18.53502464294434 181.2496795654297 19.25002288818359 180.5254974365234 19.25002288818359 179.6455078125 L 19.25002288818359 173.6871795654297 C 19.25002288818359 172.8071746826172 18.53502464294434 172.0829925537109 17.64588356018066 172.0829925537109 L 12.60420417785645 172.0829925537109 C 11.7150239944458 172.0829925537109 11.00002384185791 172.8071746826172 11.00002384185791 173.6871795654297 L 11.00002384185791 179.6455078125 C 11.00002384185791 180.5254974365234 11.7150239944458 181.2496795654297 12.60420417785645 181.2496795654297 L 17.64584350585938 181.2496795654297 Z M 8.479204177856445 174.3746795654297 C 8.855024337768555 174.3746795654297 9.166704177856445 174.0630035400391 9.166704177856445 173.6871795654297 C 9.166704177856445 173.3113555908203 8.855024337768555 172.9996795654297 8.479204177856445 172.9996795654297 L 3.437524795532227 172.9996795654297 C 3.061704635620117 172.9996795654297 2.750024795532227 173.3113555908203 2.750024795532227 173.6871795654297 C 2.750024795532227 174.0630035400391 3.061704635620117 174.3746795654297 3.437524795532227 174.3746795654297 L 8.479204177856445 174.3746795654297 Z M 8.479204177856445 177.1246795654297 C 8.855024337768555 177.1246795654297 9.166704177856445 176.8130035400391 9.166704177856445 176.4371795654297 C 9.166704177856445 176.0613555908203 8.855024337768555 175.7496795654297 8.479204177856445 175.7496795654297 L 3.437524795532227 175.7496795654297 C 3.061704635620117 175.7496795654297 2.750024795532227 176.0613555908203 2.750024795532227 176.4371795654297 C 2.750024795532227 176.8130035400391 3.061704635620117 177.1246795654297 3.437524795532227 177.1246795654297 L 8.479204177856445 177.1246795654297 Z M 8.479204177856445 179.8746795654297 C 8.855024337768555 179.8746795654297 9.166704177856445 179.5630035400391 9.166704177856445 179.1871795654297 C 9.166704177856445 178.8113555908203 8.855024337768555 178.4996795654297 8.479204177856445 178.4996795654297 L 3.437524795532227 178.4996795654297 C 3.061704635620117 178.4996795654297 2.750024795532227 178.8113555908203 2.750024795532227 179.1871795654297 C 2.750024795532227 179.5630035400391 3.061704635620117 179.8746795654297 3.437524795532227 179.8746795654297 L 8.479204177856445 179.8746795654297 Z" stroke="none" fill="#f3f5f7"/>
    </g>
    <g id="Path_137" data-name="Path 137" transform="translate(0)" fill="none">
      <path d="M20.4,0H1.6A1.606,1.606,0,0,0,0,1.6V3.9A1.606,1.606,0,0,0,1.6,5.5H20.4A1.606,1.606,0,0,0,22,3.9V1.6A1.606,1.606,0,0,0,20.4,0Z" stroke="none"/>
      <path d="M 1.604202270507812 1 C 1.271051406860352 1 1.000020980834961 1.271029949188232 1.000020980834961 1.604180097579956 L 1.000020980834961 3.895859956741333 C 1.000020980834961 4.22898006439209 1.271051406860352 4.5 1.604202270507812 4.5 L 20.39588165283203 4.5 C 20.72900199890137 4.5 21.00002288818359 4.228970050811768 21.00002288818359 3.895820140838623 L 21.00002288818359 1.604180097579956 C 21.00002288818359 1.271029949188232 20.7289924621582 1 20.39584159851074 1 L 1.604202270507812 1 M 1.604202270507812 0 L 20.39584159851074 0 C 21.28043174743652 0 22.00002288818359 0.7195901870727539 22.00002288818359 1.604180097579956 L 22.00002288818359 3.895820140838623 C 22.00002288818359 4.780409812927246 21.28043174743652 5.5 20.39588165283203 5.5 L 1.604202270507812 5.5 C 0.7196121215820312 5.5 2.09808349609375e-05 4.780409812927246 2.09808349609375e-05 3.895859956741333 L 2.09808349609375e-05 1.604180097579956 C 2.09808349609375e-05 0.7195901870727539 0.7196121215820312 0 1.604202270507812 0 Z" stroke="none" fill="#f3f5f7"/>
    </g>
  </g>
</svg>
