<svg xmlns="http://www.w3.org/2000/svg" width="20.135" height="17.037" viewBox="0 0 20.135 17.037"><g transform="translate(0 -36)"><path d="M0,42.673l7.268,4.161,1.888-2.369L1.5,40.424Zm10.958,1.783,1.9,2.378,7.281-4.169L18.611,40.26ZM2.606,39.673l7.449,3.933,7.46-4.09L10.072,36Z" fill="#8b93a8"/><path d="M44.112,251.851l7.574,4v-7.076l-1.6,2a.589.589,0,0,1-.753.144l-5.223-2.991Zm8.752-3.077v7.058l7.574-4.158v-3.742l-5.223,2.991a.589.589,0,0,1-.753-.144Z" transform="translate(-42.214 -202.813)" fill="#8b93a8"/></g></svg>