<svg xmlns="http://www.w3.org/2000/svg" width="30.005" height="25.297" viewBox="0 0 30.005 25.297"><g transform="translate(0 -40.166)"><path d="M24.418,43.932H22.757c-.71,0-.888-.534-1.22-1.2a4.62,4.62,0,0,0-4.155-2.568h-4.76a4.62,4.62,0,0,0-4.155,2.568c-.332.664-.509,1.2-1.22,1.2H5.587A5.584,5.584,0,0,0,0,49.519V59.876a5.584,5.584,0,0,0,5.587,5.587H24.418A5.584,5.584,0,0,0,30,59.876V49.519A5.584,5.584,0,0,0,24.418,43.932ZM8.411,56.989a.876.876,0,0,1-.622-.257L5.907,54.848A.879.879,0,0,1,7.15,53.605l.387.387a7.469,7.469,0,0,1,12.747-5.046.879.879,0,0,1-1.243,1.243A5.711,5.711,0,0,0,9.3,53.982l.377-.377a.879.879,0,0,1,1.243,1.243L9.033,56.731A.876.876,0,0,1,8.411,56.989ZM24.1,54.848a.879.879,0,0,1-1.243,0l-.387-.387A7.469,7.469,0,0,1,9.721,59.508a.879.879,0,1,1,1.243-1.243,5.711,5.711,0,0,0,9.745-3.793l-.377.377a.879.879,0,1,1-1.243-1.243l1.883-1.883a.879.879,0,0,1,1.243,0L24.1,53.605a.879.879,0,0,1,0,1.243Z" fill="#e6e8ef"/></g></svg>