<svg xmlns="http://www.w3.org/2000/svg" width="20" height="20" viewBox="0 0 20 20"><path d="M13.846,8.462a5.186,5.186,0,0,0-1.581-3.8,5.188,5.188,0,0,0-3.8-1.581,5.185,5.185,0,0,0-3.8,1.581,5.185,5.185,0,0,0-1.581,3.8,5.188,5.188,0,0,0,1.581,3.8,5.185,5.185,0,0,0,3.8,1.581,5.183,5.183,0,0,0,3.8-1.581A5.191,5.191,0,0,0,13.846,8.462Zm6.154,10A1.56,1.56,0,0,1,18.462,20a1.429,1.429,0,0,1-1.082-.457l-4.123-4.111a8.23,8.23,0,0,1-4.8,1.491,8.312,8.312,0,0,1-3.287-.667A8.285,8.285,0,0,1,.667,11.749a8.431,8.431,0,0,1,0-6.574A8.285,8.285,0,0,1,5.174.667a8.431,8.431,0,0,1,6.574,0,8.285,8.285,0,0,1,4.507,4.507,8.3,8.3,0,0,1,.667,3.287,8.229,8.229,0,0,1-1.491,4.8l4.123,4.123A1.472,1.472,0,0,1,20,18.462Z" fill="#f3f5f7"/></svg>