<svg xmlns="http://www.w3.org/2000/svg" width="16.017" height="18.305" viewBox="0 0 16.017 18.305">
  <g id="stealth-ico" transform="translate(-31.992)">
    <g id="Group_181" data-name="Group 181" transform="translate(31.992 0)">
      <path id="Path_220" data-name="Path 220" d="M225.148,160A1.145,1.145,0,0,0,224,161.14v1.144h2.288V161.14A1.145,1.145,0,0,0,225.148,160Z" transform="translate(-217.139 -154.276)" fill="#8b93a8"/>
      <path id="Path_221" data-name="Path 221" d="M47.359.113a1.144,1.144,0,0,0-1.212.14,4.709,4.709,0,0,1-5.43,0,1.144,1.144,0,0,0-1.434,0,4.709,4.709,0,0,1-5.43,0,1.144,1.144,0,0,0-1.861.891V10.3c0,3.586,2.875,6.562,7.689,7.963a1.151,1.151,0,0,0,.639,0c4.815-1.4,7.689-4.376,7.689-7.963V1.145A1.144,1.144,0,0,0,47.359.113ZM43.433,11.441a1.144,1.144,0,0,1-1.144,1.144H37.713a1.144,1.144,0,0,1-1.144-1.144V9.152a1.144,1.144,0,0,1,1.144-1.144V6.864a2.288,2.288,0,1,1,4.576,0V8.008a1.144,1.144,0,0,1,1.144,1.144Z" transform="translate(-31.992 0)" fill="#8b93a8"/>
      <path id="Path_222" data-name="Path 222" d="M240.576,272a.572.572,0,1,0,.572.572A.572.572,0,0,0,240.576,272Z" transform="translate(-232.567 -262.272)" fill="#8b93a8"/>
    </g>
  </g>
</svg>
