<svg xmlns="http://www.w3.org/2000/svg" width="20.135" height="20.134" viewBox="0 0 20.135 20.134"><path d="M345.286,339.5l-.821-1.643-.822,1.643Z" transform="translate(-330.129 -324.574)" fill="#8b93a8"/><path d="M146.38,129.908h-.836V128.14a.59.59,0,0,0-.649-.587,4.327,4.327,0,0,0-3.245,2.355h-.857V131.2a2.952,2.952,0,0,1-2.949,2.949H136.55v5.588a1.771,1.771,0,0,0,1.769,1.769h8.061a1.771,1.771,0,0,0,1.769-1.769v-8.061A1.771,1.771,0,0,0,146.38,129.908Zm-6.926,7.9,2.368-4.736a.59.59,0,0,1,1.055,0l2.368,4.736a.59.59,0,1,1-1.055.528l-.429-.858h-2.823l-.429.858a.59.59,0,0,1-1.055-.528Zm-5.082-11.471h-1.118a3.016,3.016,0,0,0,.559,1.472A3.017,3.017,0,0,0,134.372,126.34Z" transform="translate(-128.014 -121.372)" fill="#8b93a8"/><path d="M9.83,11.6A1.771,1.771,0,0,0,11.6,9.83V1.769A1.771,1.771,0,0,0,9.83,0H1.769A1.771,1.771,0,0,0,0,1.769V9.83A1.771,1.771,0,0,0,1.769,11.6H2.6v1.768a.59.59,0,0,0,.649.587A4.327,4.327,0,0,0,6.5,11.6ZM6.114,8.214q-.161-.086-.314-.186-.153.1-.314.186a4.8,4.8,0,0,1-2.054.543.59.59,0,0,1,0-1.18,3.655,3.655,0,0,0,1.457-.383,4.182,4.182,0,0,1-.835-2.226H3.431a.59.59,0,1,1,0-1.18H5.209V3.431a.59.59,0,1,1,1.18,0v.357H8.167a.59.59,0,1,1,0,1.18H7.545A4.182,4.182,0,0,1,6.71,7.194a3.654,3.654,0,0,0,1.46.383.59.59,0,0,1,0,1.18A4.8,4.8,0,0,1,6.114,8.214ZM14.38,3.375a.59.59,0,0,0,.834-.834l-.169-.169a4.151,4.151,0,0,1,3.9,4.138.59.59,0,1,0,1.18,0,5.332,5.332,0,0,0-5.091-5.32l.182-.182A.59.59,0,0,0,14.38.173L13.2,1.357a.59.59,0,0,0,0,.834ZM5.743,16.748a.59.59,0,0,0-.834.834l.169.169a4.151,4.151,0,0,1-3.9-4.138.59.59,0,0,0-1.18,0,5.332,5.332,0,0,0,5.091,5.32l-.182.182a.59.59,0,1,0,.834.834l1.184-1.184a.59.59,0,0,0,0-.834Z" transform="translate(0)" fill="#8b93a8"/></svg>