<svg xmlns="http://www.w3.org/2000/svg" width="26.162" height="22.012" viewBox="0 0 26.162 22.012">
  <g id="videos-fill" transform="translate(-2.049 -6)">
    <path id="Path_141" data-name="Path 141" d="M8.28,7.769H26.2a4.061,4.061,0,0,1,.964.122A2.7,2.7,0,0,0,24.605,6H9.79A2.7,2.7,0,0,0,7.221,7.911,4.076,4.076,0,0,1,8.28,7.769Z" transform="translate(-2.117)" fill="#f3f5f7"/>
    <path id="Path_142" data-name="Path 142" d="M5.365,12.774H26.77a3.541,3.541,0,0,1,1.029.153,2.836,2.836,0,0,0-2.724-1.951H7.15a2.884,2.884,0,0,0-2.54,1.516,2.844,2.844,0,0,0-.177.41,3.542,3.542,0,0,1,.932-.128Z" transform="translate(-0.986 -2.017)" fill="#f3f5f7"/>
    <path id="Path_143" data-name="Path 143" d="M25.784,16H4.378A2.378,2.378,0,0,0,2,18.378v11.3a2.378,2.378,0,0,0,2.378,2.378H25.784a2.378,2.378,0,0,0,2.378-2.378v-11.3A2.378,2.378,0,0,0,25.784,16Zm-7.525,9.6-3.418,2.072c-.279.161-1.486.789-2.155.4s-.521-1.3-.521-1.947V21.9c0-.645-.148-1.817.521-2.2s1.6.336,2.155.658l3.418,2.153c.558.322,1.286.761,1.286,1.533S18.817,25.277,18.259,25.6Z" transform="translate(0.049 -4.042)" fill="#f3f5f7"/>
  </g>
</svg>
