<svg xmlns="http://www.w3.org/2000/svg" width="20.906" height="17.215" viewBox="0 0 20.906 17.215">
  <g id="comment-light" transform="translate(0 -0.5)">
    <path id="Path_147" data-name="Path 147" d="M16.619.5H4.287A4.292,4.292,0,0,0,0,4.787v6.622a4.218,4.218,0,0,0,3.033,4.055L5.1,17.535a.612.612,0,0,0,.866,0l1.9-1.9h8.749a4.292,4.292,0,0,0,4.287-4.287V4.787A4.292,4.292,0,0,0,16.619.5Zm3.062,10.848a3.066,3.066,0,0,1-3.062,3.062h-9a.613.613,0,0,0-.433.179L5.537,16.236,3.784,14.483a.612.612,0,0,0-.285-.161,3,3,0,0,1-2.274-2.913V4.787A3.066,3.066,0,0,1,4.287,1.725H16.619a3.066,3.066,0,0,1,3.062,3.062Zm0,0" fill="#a4b6e1"/>
    <path id="Path_148" data-name="Path 148" d="M154.148,144.328H146.37a.612.612,0,1,0,0,1.225h7.778a.612.612,0,1,0,0-1.225Zm0,0" transform="translate(-139.806 -137.955)" fill="#a4b6e1"/>
    <path id="Path_149" data-name="Path 149" d="M154.148,197.352H146.37a.612.612,0,1,0,0,1.225h7.778a.612.612,0,1,0,0-1.225Zm0,0" transform="translate(-139.806 -188.814)" fill="#a4b6e1"/>
  </g>
</svg>
