<svg xmlns="http://www.w3.org/2000/svg" width="26.163" height="21.525" viewBox="0 0 26.163 21.525">
  <g id="friends-light" transform="translate(-3.942)">
    <g id="Path_454" data-name="Path 454" transform="translate(6.252 -47.085)" fill="none">
      <path d="M22.574,66.648H16.438a.489.489,0,0,1-.489-.489c0-.27.3-4.473-1.73-6.474A.489.489,0,0,1,14.291,59a5.269,5.269,0,0,1,3.562-1.161,5.977,5.977,0,0,1,6,5.941v1.6A1.276,1.276,0,0,1,22.574,66.648Zm-4.721-9.524a3.486,3.486,0,1,1,3.519-3.486A3.506,3.506,0,0,1,17.853,57.124Z" stroke="none"/>
      <path d="M 22.57442474365234 65.44833374023438 C 22.62078475952148 65.44833374023438 22.65309524536133 65.41128540039062 22.65309524536133 65.37802886962891 L 22.65309524536133 63.77780532836914 C 22.65309524536133 61.16345596313477 20.50004577636719 59.03653717041016 17.85359573364258 59.03653717041016 C 16.9481143951416 59.03653717041016 16.2646598815918 59.18162155151367 15.64898014068604 59.52101135253906 C 16.90683364868164 61.27634429931641 17.16226196289062 63.74143218994141 17.16296005249023 65.44833374023438 L 22.57442474365234 65.44833374023438 M 17.85335540771484 55.92448425292969 C 19.13196563720703 55.92448425292969 20.17218589782715 54.89894485473633 20.17218589782715 53.63837432861328 C 20.17218589782715 52.37766647338867 19.13196563720703 51.35200500488281 17.85335540771484 51.35200500488281 C 16.57501602172852 51.35200500488281 15.53500556945801 52.37766647338867 15.53500556945801 53.63837432861328 C 15.53500556945801 54.89894485473633 16.57501602172852 55.92448425292969 17.85335540771484 55.92448425292969 M 22.57442474365234 66.64833831787109 L 16.4377555847168 66.64833831787109 C 16.1678352355957 66.64833831787109 15.94854545593262 66.42927551269531 15.94854545593262 66.15910339355469 C 15.94854545593262 65.88918304443359 16.25195503234863 61.68652725219727 14.21874523162842 59.685546875 C 14.04893589019775 59.47554397583008 14.0809154510498 59.16741561889648 14.29139518737793 58.99733734130859 C 15.35842514038086 58.13381576538086 16.47383499145508 57.8365364074707 17.85359573364258 57.8365364074707 C 21.16170501708984 57.8365364074707 23.85309600830078 60.50162506103516 23.85309600830078 63.77780532836914 L 23.85309600830078 65.37802886962891 C 23.85309600830078 66.07839202880859 23.27955627441406 66.64833831787109 22.57442474365234 66.64833831787109 Z M 17.85335540771484 57.12448501586914 C 15.91320514678955 57.12448501586914 14.33500576019287 55.56058502197266 14.33500576019287 53.63837432861328 C 14.33500576019287 51.71612548828125 15.91320514678955 50.15200424194336 17.85335540771484 50.15200424194336 C 19.79368591308594 50.15200424194336 21.37218475341797 51.71594619750977 21.37218475341797 53.63837432861328 C 21.37218475341797 55.56077575683594 19.7934455871582 57.12448501586914 17.85335540771484 57.12448501586914 Z" stroke="none" fill="#f3f5f7"/>
    </g>
    <g id="Path_455" data-name="Path 455" transform="translate(-109.319)" fill="none">
      <path d="M128.141,21.525H114.862a1.6,1.6,0,0,1-1.6-1.588V17.687a8.24,8.24,0,0,1,16.479,0v2.251A1.6,1.6,0,0,1,128.141,21.525Zm-6.81-12.568a4.506,4.506,0,0,1-4.521-4.479,4.522,4.522,0,0,1,9.043,0,4.505,4.505,0,0,1-4.522,4.479Z" stroke="none"/>
      <path d="M 128.1410827636719 20.32527923583984 C 128.3614959716797 20.32527923583984 128.5408172607422 20.15120887756348 128.5408172607422 19.9372386932373 L 128.5408172607422 17.6866283416748 C 128.5408172607422 13.85036945343018 125.382942199707 10.72933864593506 121.5013961791992 10.72933864593506 C 117.6198654174805 10.72933864593506 114.4620056152344 13.85036945343018 114.4620056152344 17.6866283416748 L 114.4620056152344 19.9372386932373 C 114.4620056152344 20.15120887756348 114.6413040161133 20.32527923583984 114.861701965332 20.32527923583984 L 128.1410827636719 20.32527923583984 M 121.331413269043 7.757699012756348 C 123.1629409790039 7.757699012756348 124.6530075073242 6.286808967590332 124.6530075073242 4.478848934173584 C 124.6530075073242 2.670889139175415 123.1629409790039 1.199999094009399 121.331413269043 1.199999094009399 C 119.4999542236328 1.199999094009399 118.0099411010742 2.670768976211548 118.0099411010742 4.478599071502686 C 118.0099411010742 6.286698818206787 119.4999542236328 7.757699012756348 121.331413269043 7.757699012756348 M 128.1410827636719 21.5252799987793 L 114.861701965332 21.5252799987793 C 113.9795608520508 21.5252799987793 113.2620010375977 20.81298828125 113.2620010375977 19.9372386932373 L 113.2620010375977 17.6866283416748 C 113.2620010375977 13.18863868713379 116.9578018188477 9.529338836669922 121.5013961791992 9.529338836669922 C 126.0450057983398 9.529338836669922 129.7408142089844 13.18862915039062 129.7408142089844 17.6866283416748 L 129.7408142089844 19.9372386932373 C 129.7408142089844 20.81292915344238 129.0232543945312 21.5252799987793 128.1410827636719 21.5252799987793 Z M 121.331413269043 8.957698822021484 L 121.3313522338867 8.957698822021484 C 118.8384323120117 8.957698822021484 116.809944152832 6.948568820953369 116.809944152832 4.478599071502686 C 116.809944152832 2.008949041366577 118.838264465332 -9.542847010379774e-07 121.331413269043 -9.542847010379774e-07 C 123.8247451782227 -9.542847010379774e-07 125.8530044555664 2.009129047393799 125.8530044555664 4.478848934173584 C 125.8530044555664 6.94874906539917 123.8245162963867 8.957698822021484 121.331413269043 8.957698822021484 Z" stroke="none" fill="#f3f5f7"/>
    </g>
  </g>
</svg>
