<svg xmlns="http://www.w3.org/2000/svg" width="24" height="22" viewBox="0 0 24 22">
  <g id="gallery-ico" transform="translate(0 -2)">
    <g id="Group_109" data-name="Group 109">
      <g id="Group_108" data-name="Group 108">
        <path id="Path_138" data-name="Path 138" d="M6.25,19.5a3.744,3.744,0,0,1-3.542-2.551l-.035-.115A3.648,3.648,0,0,1,2.5,15.75V8.932L.074,17.03a2.271,2.271,0,0,0,1.592,2.755l15.463,4.141A2.293,2.293,0,0,0,17.7,24a2.23,2.23,0,0,0,2.161-1.635l.9-2.865Z" fill="#a4b6e1"/>
      </g>
      <path id="Path_139" data-name="Path 139" d="M9,9A2,2,0,1,0,7,7,2,2,0,0,0,9,9Z" fill="#a4b6e1"/>
    </g>
    <path id="Path_140" data-name="Path 140" d="M21.5,2H6.5A2.5,2.5,0,0,0,4,4.5v11A2.5,2.5,0,0,0,6.5,18h15A2.5,2.5,0,0,0,24,15.5V4.5A2.5,2.5,0,0,0,21.5,2ZM6.5,4h15a.5.5,0,0,1,.5.5v7.1L18.841,7.913A1.791,1.791,0,0,0,17.5,7.3a1.749,1.749,0,0,0-1.336.631L12.45,12.387,11.24,11.18a1.755,1.755,0,0,0-2.48,0L6,13.939V4.5A.5.5,0,0,1,6.5,4Z" fill="#a4b6e1"/>
  </g>
</svg>
