<svg xmlns="http://www.w3.org/2000/svg" width="22" height="13.211" viewBox="0 0 22 13.211">
  <g id="groups-solid" transform="translate(2)">
    <path id="Path_454" data-name="Path 454" d="M1.682,54.58a2.14,2.14,0,1,1,2.159-2.14A2.152,2.152,0,0,1,1.682,54.58ZM2.551,60.5H-1.215A.783.783,0,0,1-2,59.724v-.982A3.669,3.669,0,0,1,1.682,55.1a3.676,3.676,0,0,1,2.2.721.3.3,0,0,1,.063.42c-1.342,1.2-1.092,3.8-1.092,3.967a.3.3,0,0,1-.3.3Zm16.664-.227H15.449a.3.3,0,0,1-.3-.3c0-.166.2-2.58-1.2-3.863a.3.3,0,0,1,.045-.422,3.712,3.712,0,0,1,2.329-.822A3.668,3.668,0,0,1,20,58.515V59.5A.783.783,0,0,1,19.215,60.276Zm-2.9-5.845a2.14,2.14,0,1,1,2.16-2.14A2.152,2.152,0,0,1,16.318,54.431Z" transform="translate(0 -48.27)" fill="#f3f5f7"/>
    <path id="Path_455" data-name="Path 455" d="M122.394,13.211h-8.15a.979.979,0,0,1-.982-.975V10.855a5.057,5.057,0,0,1,10.114,0v1.381A.979.979,0,0,1,122.394,13.211ZM118.214,5.5a2.765,2.765,0,0,1-2.775-2.749,2.775,2.775,0,0,1,5.55,0A2.765,2.765,0,0,1,118.215,5.5Z" transform="translate(-109.319)" fill="#f3f5f7"/>
  </g>
</svg>
