<svg xmlns="http://www.w3.org/2000/svg" width="17.214" height="17.215" viewBox="0 0 17.214 17.215">
  <g id="share.light" transform="translate(-0.013)">
    <path id="Path_150" data-name="Path 150" d="M17.034.407A1.016,1.016,0,0,0,16.181,0a1.717,1.717,0,0,0-.541.1L1,4.975a1.364,1.364,0,0,0-.956.945A1.364,1.364,0,0,0,.476,7.193.5.5,0,0,0,.6,7.285l6.164,3.177,3.177,6.164a.5.5,0,0,0,.092.126,1.433,1.433,0,0,0,1.01.463h0a1.307,1.307,0,0,0,1.208-.987l4.88-14.64a1.289,1.289,0,0,0-.1-1.181ZM1.025,6.152c.019-.082.132-.166.294-.22L15.215,1.3,7.044,9.471l-5.9-3.042a.362.362,0,0,1-.116-.277ZM11.3,15.909c-.048.144-.139.3-.251.3a.424.424,0,0,1-.246-.12l-3.042-5.9,8.171-8.171Z" transform="translate(0)" fill="#a4b6e1"/>
  </g>
</svg>
